<svg xmlns="http://www.w3.org/2000/svg" viewBox="0 0 841.88 165.16"><defs><style>.cls-1{fill:#fff;}</style></defs><g id="Layer_2" data-name="Layer 2"><g id="Artwork"><path class="cls-1" d="M825.39,24.64h-5.6l2.8-8.12Z"/><polygon class="cls-1" points="825.39 24.64 822.59 16.52 819.79 24.64 825.39 24.64"/><path class="cls-1" d="M746.3,29.63h-5.09v-5h5c2,0,3.13.95,3.13,2.47S748.09,29.63,746.3,29.63Z"/><path class="cls-1" d="M746.2,24.67h-5v5h5.09c1.79,0,3-.88,3-2.49S748.22,24.67,746.2,24.67Z"/><path class="cls-1" d="M741.21,15.47h4.41c1.79,0,2.77.88,2.77,2.19s-1.08,2.3-2.66,2.3h-4.52Z"/><path class="cls-1" d="M748.39,17.66c0-1.31-1-2.19-2.77-2.19h-4.41V20h4.52C747.31,20,748.39,19.11,748.39,17.66Z"/><path class="cls-1" d="M725.31,0V43.56H841.88V0Zm21.33,34.35H735.55V10.75h11.36c4.51,0,7.24,2.43,7.24,6.1a5.13,5.13,0,0,1-3.6,5.23,5.46,5.46,0,0,1,4.51,5.63C755.06,31.85,751.86,34.35,746.64,34.35Zm33.78,0H762.18V10.75h18v5H768v4.07h11.73v5H768v4.45h12.44Zm27-18.57h-7.22V34.35h-5.8V15.78h-7.21v-5h20.23Zm21.37,18.57-1.62-4.69H818l-1.62,4.69h-6.06l9.16-23.6h6.14l9.17,23.6Z"/><path class="cls-1" d="M121.11,165.16a40.43,40.43,0,0,1-40.37-39.39h29.31a11.06,11.06,0,0,0,22.09-.67v-4.45l-1.25.3a40.53,40.53,0,0,1-19.62,0A40.74,40.74,0,0,1,81.72,91H79.78A40.47,40.47,0,1,1,49.09,42.26l1.21.26V1H80.85V68.42l2,.33a40.42,40.42,0,0,1,78.7,13v43A40.44,40.44,0,0,1,121.11,165.16Zm0-77.82a8.45,8.45,0,1,0,8.46,8.45A8.46,8.46,0,0,0,121.07,87.34ZM32.7,99.7A2.37,2.37,0,0,0,34.42,102a21.16,21.16,0,0,0,12,0,2.38,2.38,0,0,0,1.72-2.28V89.53H58.36a2.38,2.38,0,0,0,2.28-1.7,21.27,21.27,0,0,0,.89-6.09,20.91,20.91,0,0,0-.85-5.94,2.36,2.36,0,0,0-2.28-1.72H48.15V63.78a2.36,2.36,0,0,0-1.72-2.28,21.16,21.16,0,0,0-12,0,2.37,2.37,0,0,0-1.72,2.28v10.3H22.45a2.36,2.36,0,0,0-2.28,1.72,21,21,0,0,0-.85,5.94,21.27,21.27,0,0,0,.89,6.09,2.38,2.38,0,0,0,2.28,1.7H32.7ZM135.13,73.29a8.45,8.45,0,1,0,8.45,8.45A8.47,8.47,0,0,0,135.13,73.29Zm-28.11,0a8.45,8.45,0,1,0,8.45,8.45A8.46,8.46,0,0,0,107,73.29Zm14-14.06a8.46,8.46,0,1,0,8.46,8.45A8.46,8.46,0,0,0,121.07,59.23Z"/><path class="cls-1" d="M194.75,108.07V55.41h23.13c15.77,0,27.66,11.32,27.66,26.33s-11.89,26.33-27.66,26.33Zm13.31-10.65h7.79c9.69,0,16.46-6.4,16.46-15.56s-6.77-15.57-16.46-15.57h-7.79Z"/><path class="cls-1" d="M280.35,108.07l-8.44-18.2H264v18.2H250.18V55.41h28.75c12.82,0,20.78,6.59,20.78,17.19,0,7.57-4.3,13.37-11.81,15.92l-1.08.37,9.47,19.18ZM264,79.3h14.5c4.93,0,8-2.54,8-6.62s-3.06-6.39-8-6.39H264Z"/><path class="cls-1" d="M330.19,109.16c-15.8,0-27.27-11.53-27.27-27.42s11.47-27.43,27.27-27.43,27.27,11.54,27.27,27.43S346,109.16,330.19,109.16Zm0-43.1c-9.3,0-13.54,8.2-13.54,15.83s4.24,15.83,13.54,15.83,13.54-8.21,13.54-15.83S339.5,66.06,330.19,66.06Z"/><path class="cls-1" d="M362.38,108.07V55.41H389.8c12.63,0,20.79,6.81,20.79,17.35s-8.16,17.43-20.79,17.43H376.23v17.88ZM376.23,79.3H389c4.81,0,7.79-2.54,7.79-6.62s-3-6.39-7.79-6.39H376.23Z"/><rect class="cls-1" x="433.35" y="55.41" width="13.85" height="52.66"/><polygon class="cls-1" points="492.21 108.07 467.92 77.04 467.92 108.07 454.77 108.07 454.77 55.41 467.73 55.41 492.1 86.43 492.1 55.41 505.25 55.41 505.25 108.07 492.21 108.07"/><path class="cls-1" d="M558.12,109.16c-16.91,0-27.42-10.51-27.42-27.42,0-13.3,9.64-27.43,27.5-27.43,13.24,0,22.31,6.43,25.07,17.68h-14c-2-4.08-5.9-6.4-10.79-6.4-9.22,0-14,8.12-14,16.15,0,10.19,5.42,16.77,13.81,16.77,5.91,0,10-2.49,11.41-7l.42-1.3H557.72V79.3h26.34v5.41C584.06,99.56,573.88,109.16,558.12,109.16Z"/><path class="cls-1" d="M624,108.07l-2.89-9.22h-21l-2.89,9.22h-14.3l19.41-52.66h16.56l19.41,52.66ZM603.64,87.5h14l-7-22.21Z"/><polygon class="cls-1" points="690.59 108.07 690.59 78.3 688.65 77.95 677.42 108.07 667.56 108.07 656.32 77.95 654.39 78.3 654.39 108.07 641.32 108.07 641.32 55.41 659.32 55.41 672.49 87.75 685.65 55.41 703.66 55.41 703.66 108.07 690.59 108.07"/><rect class="cls-1" x="711.45" y="55.41" width="13.85" height="52.66"/><polygon class="cls-1" points="770.32 108.07 746.03 77.04 746.03 108.07 732.88 108.07 732.88 55.41 745.84 55.41 770.21 86.43 770.21 55.41 783.36 55.41 783.36 108.07 770.32 108.07"/><path class="cls-1" d="M815.94,109.16c-16.91,0-27.42-10.51-27.42-27.42,0-13.3,9.64-27.43,27.5-27.43,13.24,0,22.31,6.43,25.07,17.68h-14c-2-4.08-5.9-6.4-10.79-6.4-9.22,0-14,8.12-14,16.15,0,10.19,5.42,16.77,13.81,16.77,5.91,0,10-2.49,11.41-7l.42-1.3H815.54V79.3h26.34v5.41C841.88,99.56,831.7,109.16,815.94,109.16Z"/><rect class="cls-1" x="415.27" y="79.3" width="10.88" height="10.88" transform="translate(505.46 -335.97) rotate(90)"/></g></g></svg>