<svg xmlns="http://www.w3.org/2000/svg" viewBox="0 0 254.85 253.79"><g id="Layer_2" data-name="Layer 2"><g id="Artwork"><path d="M242.92,214.68V204.36H218.85v10.32h-4.3V194H190.48v20.65H180.24V139.52h-7.12V98.2H149.06v41.32h-6.23V118.85H118.76v7.77a12.06,12.06,0,0,0-12.92-3.71V108.52H81.77v31h-7.1v47.34H64.37V156H40.3v15.72a12.16,12.16,0,0,0-4.3-1.4h0V145.66H11.93v41.21H0v66.92H254.85V214.68Zm-20.07-6.32h16.07v6.32H222.85ZM194.48,198h16.07v6.33H194.48Zm16.07,10.33v6.32H194.48v-6.32ZM153.06,102.2h16.06v6.32H153.06Zm0,10.32h16.06v6.33H153.06Zm0,10.33h16.06v6.32H153.06Zm16.06,10.32v6.33H153.06v-6.33Zm60.35,85.51v15l-12.77-7.74-12.76,7.74v-15Zm-83.91-75.16v66.6l-18.1-8.89-18.1,8.89V146.55h.17a12,12,0,0,0,8-3Zm-29.71-4a8.08,8.08,0,0,1-6.32,3h-.17a8,8,0,0,1-3.52-.89,4.53,4.53,0,0,1-.48-.27,8,8,0,0,1-2.15-1.87,7.91,7.91,0,0,1-1.37-2.52,8,8,0,0,1-.42-2.55,7.71,7.71,0,0,1,.11-1.28,8.07,8.07,0,0,1,1.85-4,8.32,8.32,0,0,1,2.46-1.94,8.1,8.1,0,0,1,10,12.29Zm23,0H122.76v-6.33h16.07Zm-16.07-16.65h16.07v6.32H122.76Zm-37-10.33h16.07v6.33H85.77Zm0,10.33h16.07v2.25a12.24,12.24,0,0,0-3.2,4.07H85.77Zm11.72,10.32a10.86,10.86,0,0,0-.07,1.28,12,12,0,0,0,1.12,5.05H85.77v-6.33ZM15.93,186.86v-6.22h6.56a11.66,11.66,0,0,0-.13,1.68,12,12,0,0,0,.89,4.54l0,.1H15.93Zm0-37.2H32V156H15.93Zm0,10.33H32v6.32H15.93Zm28.37,0H60.37v6.32H44.3Zm16.07,10.32v6.33H45.16a11.28,11.28,0,0,0-.86-1.37v-5Zm0,16.55v.1H45.66l0-.1a12,12,0,0,0,.89-4.54,11.66,11.66,0,0,0-.13-1.68H60.37ZM42.3,180.21c0,.14.08.28.11.43a8.4,8.4,0,0,1,.17,1.68,8.14,8.14,0,0,1-.28,2.11,8,8,0,0,1-1.11,2.43,8.56,8.56,0,0,1-.89,1.1,8.16,8.16,0,0,1-4.3,2.33,8.62,8.62,0,0,1-1.53.15A8.17,8.17,0,0,1,27.82,187a.86.86,0,0,1-.07-.1,8,8,0,0,1-1.39-4.54,7.72,7.72,0,0,1,.18-1.68,8.12,8.12,0,0,1,5.46-6,7.7,7.7,0,0,1,2-.37l.47,0a7.78,7.78,0,0,1,1.53.15,8.09,8.09,0,0,1,4.3,2.33A8.18,8.18,0,0,1,42.3,180.21Zm-26.37-9.9H32v.15a12.2,12.2,0,0,0-8.22,6.18H15.93ZM25.38,191H26a12.07,12.07,0,0,0,17,0h8v39.82L38.15,223l-12.77,7.74Zm225.47,58.83H4V190.87h7.93V191h9.45v46.92l16.77-10.16,16.76,10.16V191h9.46v-.1h14.3V143.52h22.87a12,12,0,0,0,3.82,2.28v70.74l22.1-10.85,22.1,10.85v-73h26.68v75.16h23.7v22.11l16.76-10.17,16.77,10.16v-22.1h17.38Z"/><path d="M93.43,65.22C97.12,85,107.5,99.85,120.67,103.73v11.58h4V104.55a21.92,21.92,0,0,0,5.76,0v10.76h4V103.73C147.59,99.85,158,85,161.66,65.22c18.87-.64,32.6-32.81,32.6-49.65v-2H163.12V0H92V13.57H60.79v2C60.79,32.42,74.54,64.62,93.43,65.22ZM92,49.62c-4.14-2.28-10.09-10.65-13.65-21H92V49.14C92,49.3,92,49.46,92,49.62Zm98.23-32c-.49,8.23-3.83,18.69-8.8,27.3-5.66,9.8-12.55,15.66-19.09,16.32q.48-3.54.68-7.23c7.51-2.15,15.32-16.34,18.39-26.82l.75-2.57h-19v-7ZM163.12,49.14V28.57h13.61c-3.54,10.37-9.48,18.73-13.61,21ZM96,4h63.16V49.14c0,28.45-14.16,51.6-31.58,51.6S96,77.59,96,49.14ZM64.86,17.57H92v7h-19l.75,2.57C76.75,37.63,84.58,51.85,92.1,54q.2,3.69.68,7.22c-6.55-.64-13.46-6.51-19.12-16.32C68.69,36.26,65.34,25.8,64.86,17.57Z"/><path d="M121.15,41.21v18.7h-7.81v14H143v-14h-7.82V21l-24.32,8.91,4.82,13.21Zm10-14.46V63.91H139v6H117.34v-6h7.81V35.57l-7.09,2.49L116,32.32Z"/></g></g></svg>