<svg xmlns="http://www.w3.org/2000/svg" viewBox="0 0 298 302.88"><g id="Layer_2" data-name="Layer 2"><g id="Artwork"><path d="M223,74a75,75,0,0,0-71,50.9l-1.94-.32V0H92.3V76l-1.21-.26A75,75,0,1,0,75,224a74.67,74.67,0,0,0,73-57.87H150a75,75,0,0,0,91.24,55.63l1.24-.31v7.11a19.45,19.45,0,0,1-38.89.4H148.13A74.94,74.94,0,0,0,298,228V149A75.1,75.1,0,0,0,223,74ZM111.3,159.91a3.5,3.5,0,0,1-3.37,2.52H88.35v19.5a3.54,3.54,0,0,1-2.56,3.39,38,38,0,0,1-21.56,0,3.54,3.54,0,0,1-2.56-3.39v-19.5H42.09a3.5,3.5,0,0,1-3.37-2.52,37.87,37.87,0,0,1-.08-21.58A3.51,3.51,0,0,1,42,135.76H61.67V116a3.52,3.52,0,0,1,2.56-3.38,37.79,37.79,0,0,1,21.56,0A3.52,3.52,0,0,1,88.35,116v19.73H108a3.52,3.52,0,0,1,3.39,2.57,37.87,37.87,0,0,1-.08,21.58Zm97.14-38.62a14.77,14.77,0,0,1,12.65-12.65,15.15,15.15,0,0,1,1.9-.12,14.68,14.68,0,0,1,1.9,29.23,15.15,15.15,0,0,1-1.9.12,14.67,14.67,0,0,1-14.55-16.58ZM197.2,163.66A14.68,14.68,0,1,1,211.88,149,14.69,14.69,0,0,1,197.2,163.66ZM223,189.44a14.68,14.68,0,1,1,14.68-14.67A14.69,14.69,0,0,1,223,189.44Zm25.79-25.78A14.68,14.68,0,1,1,263.45,149,14.65,14.65,0,0,1,248.78,163.66Z"/></g></g></svg>
