<?xml version="1.0" encoding="utf-8"?>
<!-- Generator: Adobe Illustrator 26.0.1, SVG Export Plug-In . SVG Version: 6.00 Build 0)  -->
<svg version="1.1" xmlns="http://www.w3.org/2000/svg" x="0px" y="0px"
	 viewBox="0 0 841.9 164.2" style="enable-background:new 0 0 841.9 164.2;" xml:space="preserve">
<style type="text/css">
	.st0{display:none;}
	.st1{display:inline;fill:#2F80F2;stroke:#000000;stroke-miterlimit:10;}
	.st2{fill:#FFFFFF;}
	.st3{fill:#41B049;}
	.st4{font-family:'Poppins-Bold';}
	.st5{font-size:43px;}
</style>
<g id="Layer_2" class="st0">
	<rect x="-8" class="st1" width="849.9" height="164.2"/>
</g>
<g id="Layer_1">
	<g id="Layer_2_00000010312042970010234810000013467501333873463723_">
		<g id="Artwork">
			<path class="st2" d="M121.1,164.2c-21.9,0-39.8-17.5-40.4-39.4h29.3c0.4,6.1,5.7,10.7,11.8,10.2c5.7-0.4,10.2-5.2,10.3-10.9v-4.4
				l-1.2,0.3c-21.7,5.4-43.6-7.7-49-29.4c0-0.2-0.1-0.4-0.1-0.6h-1.9c-5.1,21.8-26.9,35.3-48.6,30.2S-4.1,93.3,1,71.6
				C6,50,27.5,36.5,49.1,41.3l1.2,0.3V0h30.5v67.4l2,0.3C90,46.6,113,35.3,134.1,42.4c16.4,5.6,27.5,21,27.4,38.3v43
				C161.5,146.1,143.4,164.2,121.1,164.2z M121.1,86.3c-4.7,0-8.5,3.8-8.5,8.5c0,4.7,3.8,8.5,8.5,8.5c4.7,0,8.5-3.8,8.5-8.5
				c0,0,0,0,0,0C129.6,90.1,125.8,86.3,121.1,86.3C121.1,86.3,121.1,86.3,121.1,86.3L121.1,86.3z M32.7,98.7c0,1.1,0.7,2,1.7,2.3
				c3.9,1.2,8.1,1.2,12,0c1-0.3,1.7-1.2,1.7-2.3V88.5h10.2c1.1,0,2-0.7,2.3-1.7c0.6-2,0.9-4,0.9-6.1c0-2-0.3-4-0.8-5.9
				c-0.3-1-1.2-1.7-2.3-1.7H48.2V62.8c0-1.1-0.7-2-1.7-2.3c-3.9-1.2-8.1-1.2-12,0c-1,0.3-1.7,1.2-1.7,2.3v10.3H22.5
				c-1.1,0-2,0.7-2.3,1.7c-0.6,1.9-0.9,3.9-0.9,5.9c0,2.1,0.3,4.1,0.9,6.1c0.3,1,1.2,1.7,2.3,1.7h10.2V98.7z M135.1,72.3
				c-4.7,0-8.5,3.8-8.5,8.4s3.8,8.5,8.5,8.5c4.7,0,8.4-3.8,8.4-8.4c0,0,0,0,0,0C143.6,76.1,139.8,72.3,135.1,72.3z M107,72.3
				c-4.7,0-8.5,3.8-8.5,8.4s3.8,8.5,8.4,8.5c4.7,0,8.5-3.8,8.5-8.4c0,0,0,0,0,0C115.5,76.1,111.7,72.3,107,72.3L107,72.3L107,72.3z
				 M121,58.2c-4.7,0-8.5,3.8-8.5,8.5c0,4.7,3.8,8.5,8.5,8.5c4.7,0,8.5-3.8,8.5-8.5c0,0,0,0,0,0C129.5,62,125.7,58.3,121,58.2
				L121,58.2z"/>
			<path class="st2" d="M194.8,107.1V54.4h23.1c15.8,0,27.7,11.3,27.7,26.3s-11.9,26.3-27.7,26.3H194.8z M208.1,96.4h7.8
				c9.7,0,16.5-6.4,16.5-15.6s-6.8-15.6-16.5-15.6h-7.8L208.1,96.4z"/>
			<path class="st2" d="M280.4,107.1l-8.4-18.2H264v18.2h-13.8V54.4h28.8c12.8,0,20.8,6.6,20.8,17.2c0,7.6-4.3,13.4-11.8,15.9
				l-1.1,0.4l9.5,19.2H280.4z M264,78.3h14.5c4.9,0,8-2.5,8-6.6s-3.1-6.4-8-6.4H264V78.3z"/>
			<path class="st2" d="M330.2,108.2c-15.8,0-27.3-11.5-27.3-27.4s11.5-27.4,27.3-27.4s27.3,11.5,27.3,27.4S346,108.2,330.2,108.2z
				 M330.2,65.1c-9.3,0-13.5,8.2-13.5,15.8s4.2,15.8,13.5,15.8s13.5-8.2,13.5-15.8S339.5,65.1,330.2,65.1z"/>
			<path class="st2" d="M362.4,107.1V54.4h27.4c12.6,0,20.8,6.8,20.8,17.4s-8.2,17.4-20.8,17.4h-13.6v17.9H362.4z M376.2,78.3H389
				c4.8,0,7.8-2.5,7.8-6.6s-3-6.4-7.8-6.4h-12.8V78.3z"/>
			<rect x="433.4" y="54.4" class="st2" width="13.9" height="52.7"/>
			<polygon class="st2" points="492.2,107.1 467.9,76 467.9,107.1 454.8,107.1 454.8,54.4 467.7,54.4 492.1,85.4 492.1,54.4 
				505.2,54.4 505.2,107.1 			"/>
			<path class="st2" d="M558.1,108.2c-16.9,0-27.4-10.5-27.4-27.4c0-13.3,9.6-27.4,27.5-27.4c13.2,0,22.3,6.4,25.1,17.7h-14
				c-2-4.1-5.9-6.4-10.8-6.4c-9.2,0-14,8.1-14,16.2c0,10.2,5.4,16.8,13.8,16.8c5.9,0,10-2.5,11.4-7l0.4-1.3h-12.4V78.3h26.3v5.4
				C584.1,98.6,573.9,108.2,558.1,108.2z"/>
			<path class="st2" d="M624,107.1l-2.9-9.2h-21l-2.9,9.2h-14.3l19.4-52.7h16.6l19.4,52.7H624z M603.6,86.5h14l-7-22.2L603.6,86.5z"
				/>
			<polygon class="st2" points="690.6,107.1 690.6,77.3 688.7,76.9 677.4,107.1 667.6,107.1 656.3,76.9 654.4,77.3 654.4,107.1 
				641.3,107.1 641.3,54.4 659.3,54.4 672.5,86.8 685.7,54.4 703.7,54.4 703.7,107.1 			"/>
			<rect x="711.5" y="54.4" class="st2" width="13.8" height="52.7"/>
			<polygon class="st2" points="770.3,107.1 746,76 746,107.1 732.9,107.1 732.9,54.4 745.8,54.4 770.2,85.4 770.2,54.4 783.4,54.4 
				783.4,107.1 			"/>
			<path class="st2" d="M815.9,108.2c-16.9,0-27.4-10.5-27.4-27.4c0-13.3,9.6-27.4,27.5-27.4c13.2,0,22.3,6.4,25.1,17.7h-14
				c-2-4.1-5.9-6.4-10.8-6.4c-9.2,0-14,8.1-14,16.2c0,10.2,5.4,16.8,13.8,16.8c5.9,0,10-2.5,11.4-7l0.4-1.3h-12.4V78.3h26.3v5.4
				C841.9,98.6,831.7,108.2,815.9,108.2z"/>
			<rect x="415.3" y="78.3" class="st2" width="10.9" height="10.9"/>
		</g>
	</g>
	<rect x="741.1" y="0.2" class="st3" width="100.3" height="47.3"/>
	<text transform="matrix(1 0 0 1 759.2908 39.0352)" class="st2 st4 st5">GG</text>
</g>
</svg>
