<?xml version="1.0" encoding="UTF-8" standalone="no"?>
<svg
   xmlns="http://www.w3.org/2000/svg"
   viewBox="0 0 841.88 165.16"
   version="1.1"
   id="svg881">
  <g
     id="Artwork">
    <path
       d="M 121.11,165.16 A 40.43,40.43 0 0 1 80.74,125.77 h 29.31 a 11.06,11.06 0 0 0 22.09,-0.67 v -4.45 l -1.25,0.3 a 40.53,40.53 0 0 1 -19.62,0 A 40.74,40.74 0 0 1 81.72,91 H 79.78 A 40.47,40.47 0 1 1 49.09,42.26 l 1.21,0.26 V 1 h 30.55 v 67.42 l 2,0.33 a 40.42,40.42 0 0 1 78.7,13 v 43 a 40.44,40.44 0 0 1 -40.44,40.41 z m 0,-77.82 a 8.45,8.45 0 1 0 8.46,8.45 8.46,8.46 0 0 0 -8.5,-8.45 z M 32.7,99.7 a 2.37,2.37 0 0 0 1.72,2.3 21.16,21.16 0 0 0 12,0 2.38,2.38 0 0 0 1.72,-2.28 V 89.53 h 10.22 a 2.38,2.38 0 0 0 2.28,-1.7 21.27,21.27 0 0 0 0.89,-6.09 A 20.91,20.91 0 0 0 60.68,75.8 2.36,2.36 0 0 0 58.4,74.08 H 48.15 v -10.3 a 2.36,2.36 0 0 0 -1.72,-2.28 21.16,21.16 0 0 0 -12,0 2.37,2.37 0 0 0 -1.72,2.28 v 10.3 H 22.45 a 2.36,2.36 0 0 0 -2.28,1.72 21,21 0 0 0 -0.85,5.94 21.27,21.27 0 0 0 0.89,6.09 2.38,2.38 0 0 0 2.28,1.7 H 32.7 Z M 135.13,73.29 a 8.45,8.45 0 1 0 8.45,8.45 8.47,8.47 0 0 0 -8.45,-8.45 z m -28.11,0 a 8.45,8.45 0 1 0 8.45,8.45 8.46,8.46 0 0 0 -8.47,-8.45 z m 14,-14.06 a 8.46,8.46 0 1 0 8.46,8.45 8.46,8.46 0 0 0 -8.41,-8.45 z"
       id="path851" />
    <path
       d="M 194.75,108.07 V 55.41 h 23.13 c 15.77,0 27.66,11.32 27.66,26.33 0,15.01 -11.89,26.33 -27.66,26.33 z m 13.31,-10.65 h 7.79 c 9.69,0 16.46,-6.4 16.46,-15.56 0,-9.16 -6.77,-15.57 -16.46,-15.57 h -7.79 z"
       id="path853" />
    <path
       d="m 280.35,108.07 -8.44,-18.2 H 264 v 18.2 H 250.18 V 55.41 h 28.75 c 12.82,0 20.78,6.59 20.78,17.19 0,7.57 -4.3,13.37 -11.81,15.92 l -1.08,0.37 9.47,19.18 z M 264,79.3 h 14.5 c 4.93,0 8,-2.54 8,-6.62 0,-4.08 -3.06,-6.39 -8,-6.39 H 264 Z"
       id="path855" />
    <path
       d="m 330.19,109.16 c -15.8,0 -27.27,-11.53 -27.27,-27.42 0,-15.89 11.47,-27.43 27.27,-27.43 15.8,0 27.27,11.54 27.27,27.43 0,15.89 -11.46,27.42 -27.27,27.42 z m 0,-43.1 c -9.3,0 -13.54,8.2 -13.54,15.83 0,7.63 4.24,15.83 13.54,15.83 9.3,0 13.54,-8.21 13.54,-15.83 0,-7.62 -4.23,-15.83 -13.54,-15.83 z"
       id="path857" />
    <path
       d="M 362.38,108.07 V 55.41 h 27.42 c 12.63,0 20.79,6.81 20.79,17.35 0,10.54 -8.16,17.43 -20.79,17.43 h -13.57 v 17.88 z M 376.23,79.3 H 389 c 4.81,0 7.79,-2.54 7.79,-6.62 0,-4.08 -3,-6.39 -7.79,-6.39 h -12.77 z"
       id="path859" />
    <rect
       x="433.35001"
       y="55.41"
       width="13.85"
       height="52.66"
       id="rect861" />
    <polygon
       points="467.92,108.07 454.77,108.07 454.77,55.41 467.73,55.41 492.1,86.43 492.1,55.41 505.25,55.41 505.25,108.07 492.21,108.07 467.92,77.04 "
       id="polygon863" />
    <path
       d="m 558.12,109.16 c -16.91,0 -27.42,-10.51 -27.42,-27.42 0,-13.3 9.64,-27.43 27.5,-27.43 13.24,0 22.31,6.43 25.07,17.68 h -14 c -2,-4.08 -5.9,-6.4 -10.79,-6.4 -9.22,0 -14,8.12 -14,16.15 0,10.19 5.42,16.77 13.81,16.77 5.91,0 10,-2.49 11.41,-7 l 0.42,-1.3 h -12.4 V 79.3 h 26.34 v 5.41 c 0,14.85 -10.18,24.45 -25.94,24.45 z"
       id="path865" />
    <path
       d="m 624,108.07 -2.89,-9.22 h -21 l -2.89,9.22 h -14.3 l 19.41,-52.66 h 16.56 l 19.41,52.66 z M 603.64,87.5 h 14 l -7,-22.21 z"
       id="path867" />
    <polygon
       points="688.65,77.95 677.42,108.07 667.56,108.07 656.32,77.95 654.39,78.3 654.39,108.07 641.32,108.07 641.32,55.41 659.32,55.41 672.49,87.75 685.65,55.41 703.66,55.41 703.66,108.07 690.59,108.07 690.59,78.3 "
       id="polygon869" />
    <rect
       x="711.45001"
       y="55.41"
       width="13.85"
       height="52.66"
       id="rect871" />
    <polygon
       points="746.03,108.07 732.88,108.07 732.88,55.41 745.84,55.41 770.21,86.43 770.21,55.41 783.36,55.41 783.36,108.07 770.32,108.07 746.03,77.04 "
       id="polygon873" />
    <path
       d="m 815.94,109.16 c -16.91,0 -27.42,-10.51 -27.42,-27.42 0,-13.3 9.64,-27.43 27.5,-27.43 13.24,0 22.31,6.43 25.07,17.68 h -14 c -2,-4.08 -5.9,-6.4 -10.79,-6.4 -9.22,0 -14,8.12 -14,16.15 0,10.19 5.42,16.77 13.81,16.77 5.91,0 10,-2.49 11.41,-7 l 0.42,-1.3 h -12.4 V 79.3 h 26.34 v 5.41 c 0,14.85 -10.18,24.45 -25.94,24.45 z"
       id="path875" />
    <rect
       x="415.26999"
       y="79.300003"
       width="10.88"
       height="10.88"
       transform="rotate(90,420.715,84.745)"
       id="rect877" />
  </g>
</svg>
