<?xml version="1.0" encoding="utf-8"?>
<!-- Generator: Adobe Illustrator 25.2.1, SVG Export Plug-In . SVG Version: 6.00 Build 0)  -->
<svg version="1.1" id="Layer_1" xmlns="http://www.w3.org/2000/svg" xmlns:xlink="http://www.w3.org/1999/xlink" x="25px"
     y="25px" color="blue"
     viewBox="0 0 19 19" style="enable-background:new 0 0 19 19;" xml:space="preserve">
<g>
	<g>
		<path d="M6.1,10.6l-1.4,1.1l0.6,0.7c0.9,1.2,2.4,1.7,4.2,1.7c1.8,0,3.2-0.6,4.2-1.7l0.6-0.7l-1.4-1.1l-0.6,0.7
			c-0.6,0.7-1.5,1.1-2.8,1.1c-1.3,0-2.2-0.4-2.8-1.1L6.1,10.6z M6,8.5c0.8,0,1.5-0.7,1.5-1.5c0-0.8-0.7-1.5-1.5-1.5S4.5,6.2,4.5,7
			C4.5,7.8,5.2,8.5,6,8.5z M13,8.5c0.8,0,1.5-0.7,1.5-1.5c0-0.8-0.7-1.5-1.5-1.5S11.5,6.2,11.5,7C11.5,7.8,12.2,8.5,13,8.5z M17.2,0
			H1.8H0v1.8v15.5V19h1.8h15.5H19v-1.8V1.8V0H17.2z M17.2,17.2H1.8V1.8h15.5V17.2z"/>
	</g>
</g>
</svg>
