<?xml version="1.0" encoding="UTF-8"?>
<svg width="19px" height="19px" viewBox="0 0 19 19" version="1.1" xmlns="http://www.w3.org/2000/svg" xmlns:xlink="http://www.w3.org/1999/xlink">
    <title>Element/Graphic/Tournaments_16@1x</title>
    <defs>
        <filter id="filter-1">
            <feColorMatrix in="SourceGraphic" type="matrix" values="0 0 0 0 0.556863 0 0 0 0 0.556863 0 0 0 0 0.556863 0 0 0 1.000000 0"></feColorMatrix>
        </filter>
    </defs>
    <g id="Symbols" stroke="none" stroke-width="1" fill="none" fill-rule="evenodd">
        <g id="Component/Chat/Authoring-(User)" transform="translate(-55.000000, -12.000000)">
            <g id="Group" transform="translate(18.000000, 11.000000)">
                <g transform="translate(37.530000, 1.000000)" id="Tournaments_16" filter="url(#filter-1)">
                    <g>
                        <path d="M14.2354415,2.00626174 L14.2354415,0 L3.77582968,0 L3.77582968,2.00626174 L0,2.00626174 L0,2.85159674 C0,5.04946775 1.57795867,9.0169067 4.10269255,9.78334377 C4.74514715,12.3869756 6.26675016,14.2917971 8.16030056,14.7426425 L8.16030056,16.3431434 L4.62116468,16.3431434 L4.62116468,18.0338134 L13.3788353,18.0338134 L13.3788353,16.3431434 L9.85097057,16.3431434 L9.85097057,14.7426425 C11.7332498,14.2917971 13.2323106,12.3869756 13.8973075,9.78334377 C16.4333125,9.0169067 18.0338134,5.04946775 18.0338134,2.85159674 L18.0338134,2.00626174 L14.2354415,2.00626174 Z M1.76956794,3.69693175 L3.77582968,3.69693175 L3.77582968,6.99937383 C3.77582968,7.23606763 3.77582968,7.47276143 3.77582968,7.6981841 C2.73483183,6.58607726 2.03803254,5.19639328 1.76956794,3.69693175 L1.76956794,3.69693175 Z M12.5447714,6.99937383 C12.5447714,10.3807138 10.9217282,13.1534126 9.00563557,13.1534126 C7.08954289,13.1534126 5.46649969,10.391985 5.46649969,6.99937383 L5.46649969,1.69067001 L12.5447714,1.69067001 L12.5447714,6.99937383 Z M14.2128992,7.6981841 C14.2128992,7.47276143 14.2128992,7.23606763 14.2128992,6.99937383 L14.2128992,3.69693175 L16.2304321,3.69693175 C15.9587782,5.1976451 15.2579977,6.58746114 14.2128992,7.6981841 L14.2128992,7.6981841 Z" id="Shape" fill="#000000" fill-rule="nonzero"></path>
                        <polygon id="Path" fill="#000000" fill-rule="nonzero" points="8.4758923 5.43268629 8.4758923 7.63055729 7.7319975 7.63055729 7.7319975 9.00563557 10.5948654 9.00563557 10.5948654 7.63055729 9.85097057 7.63055729 9.85097057 3.42642455 7.48403256 4.32811522 7.9686913 5.61302442"></polygon>
                    </g>
                </g>
            </g>
        </g>
    </g>
</svg>

