<?xml version="1.0" encoding="UTF-8"?>
<svg width="46px" height="60px" viewBox="0 0 46 60" version="1.1" xmlns="http://www.w3.org/2000/svg" xmlns:xlink="http://www.w3.org/1999/xlink">
    <title>Icon/Team/Placeholder@1x</title>
    <defs>
        <polygon id="path-1" points="0.176076555 0.487179487 45.1760766 0.487179487 45.1760766 59.4871795 0.176076555 59.4871795"></polygon>
    </defs>
    <g id="Icon/Team/Placeholder" stroke="none" stroke-width="1" fill="none" fill-rule="evenodd">
        <g id="Group-3">
            <mask id="mask-2" fill="white">
                <use xlink:href="#path-1"></use>
            </mask>
            <g id="Clip-2"></g>
            <path d="M41.4713056,16.2663354 L24.2848733,26.1910669 L4.71627332,37.4904766 C4.19760539,35.5118294 3.88084748,33.3553262 3.88084748,30.9709451 L3.88084748,30.8746065 L41.4713056,9.16506682 L41.4713056,16.2663354 Z M41.4713056,27.6454097 L9.1657032,46.3017559 C7.93757164,44.7807171 6.85207376,43.0206845 5.97219066,41.0457426 L41.4713056,20.5459938 L41.4713056,27.6454097 Z M22.6825599,55.618813 C21.1302609,55.0908032 16.195506,53.1714412 11.7720095,49.0751968 L41.4175865,31.9565634 C40.8266755,48.7380116 25.7445531,54.6072574 22.6825599,55.618813 L22.6825599,55.618813 Z M3.88084748,9.15395082 C6.55569208,7.81262067 14.5283591,4.1925114 22.6770027,4.1925114 C28.1322779,4.1925114 33.5190149,5.8247101 37.2849145,7.3049902 L3.88084748,26.5930955 L3.88084748,9.15395082 Z M44.2332124,6.41941587 C44.101693,6.34530924 43.0402761,5.7543088 41.3212624,4.97433643 C37.4516292,3.21615644 30.2365878,0.487179487 22.6770027,0.487179487 C11.7608952,0.487179487 1.54869418,6.17671663 1.11894075,6.41941587 L0.176076555,6.951131 L0.176076555,28.7329246 L0.176076555,30.9709451 C0.176076555,31.6545788 0.198305181,32.3233913 0.239057661,32.9773823 C0.385396112,35.3098888 0.796625684,37.44416 1.38753665,39.4116912 C1.76171851,40.6511247 2.20443863,41.8238623 2.71569702,42.9261985 C3.62151351,44.8770558 4.7181257,46.6204144 5.92588103,48.1710958 C6.72425916,49.1956201 7.56894693,50.1349217 8.4395681,50.9982641 C14.6283879,57.1268831 22.0471917,59.3093236 22.1750063,59.3463769 L22.6770027,59.4871795 L23.1771468,59.3463769 C23.3975807,59.2833862 45.1760766,52.8990994 45.1760766,30.9709451 L45.1760766,29.7852389 L45.1760766,25.5055805 L45.1760766,18.4061646 L45.1760766,18.4061646 L45.1760766,14.1283589 L45.1760766,14.1265062 L45.1760766,7.02709031 L45.1760766,6.951131 L44.2332124,6.41941587 Z" id="Fill-1" fill="#000000" mask="url(#mask-2)"></path>
        </g>
    </g>
</svg>