<svg id="Layer_1" data-name="Layer 1" xmlns="http://www.w3.org/2000/svg" viewBox="0 0 481.18 216.42"><title>2k</title><path d="M986.58,892.16H828.4c-15.24,0-28.07,11.92-31.92,29.66l-10.15,41a1.84,1.84,0,0,0,.33,1.49A1.74,1.74,0,0,0,788,965h65.74c.9,0,1.46-.44,1.9-1.53l7-17.08h70.85l-6,18.55-156,91.29a2,2,0,0,0-1,1.3s-9.22,40-10.41,45.92c-.8,4,.42,5,2.55,5H963.71a1.93,1.93,0,0,0,1.89-1.45l13.17-60.69a1.75,1.75,0,0,0-.33-1.48,1.71,1.71,0,0,0-1.37-.65H897.8l73.42-42.47c14.89-7.65,20.85-14.59,23.66-27.5l11.23-51.78c2.08-9.55.82-17.82-3.53-23.27-3.63-4.57-9.17-7-16-7" transform="translate(-759.78 -892.13)"/><path d="M1238.86,892.16h-83.14a2.55,2.55,0,0,0-1.63.57l-70.17,71.11,17.6-69.51a1.58,1.58,0,0,0-.48-1.51,2.39,2.39,0,0,0-1.7-.66h-73.1a2.16,2.16,0,0,0-2.2,1.52L977,1106a2.3,2.3,0,0,0,.32,2,2.19,2.19,0,0,0,1.75.52h75a4.34,4.34,0,0,0,4.27-3.6l12.66-74.18,37.88,75a5,5,0,0,0,4.49,2.76h76.75a2.2,2.2,0,0,0,1.92-.91,2,2,0,0,0,0-1.92l-50.3-108.84,98.55-101.54a1.75,1.75,0,0,0-1.42-3.12" transform="translate(-759.78 -892.13)"/></svg>