<svg xmlns="http://www.w3.org/2000/svg" viewBox="0 0 63.92 44.94"><g id="Layer_2" data-name="Layer 2"><g id="Layer_1-2" data-name="Layer 1"><path d="M49.92,5.47V0H14.27V5.47H0V7c0,8.83,7.13,18.7,16.67,18.7V25.4c2.8,7.49,7.83,12.65,13.79,13.45v3.09H15.54v3H48.38v-3H33.46V38.88c6-.67,11.1-5.75,14-13.22,9.46-.11,16.5-9.92,16.5-18.69V5.47Zm-46.84,3H14.27v2.94a41.33,41.33,0,0,0,1.49,11.2C9,22,3.79,15.05,3.08,8.47Zm43.84,2.94C46.92,25,40.27,36,32.1,36S17.27,25,17.27,11.41V3H46.92ZM48.44,22.6a41.77,41.77,0,0,0,1.48-11.19V8.47H60.84C60.14,15,55,21.85,48.44,22.6Z" fill="#edb049"/><path d="M29.43,22.18,29,21.74,26.9,23.92l.49.46,1-1.09-1,1.12a6,6,0,0,0,8,0,5.07,5.07,0,0,0,0-7.63l-.13-.09a4.8,4.8,0,0,0-.14-7.06,5.62,5.62,0,0,0-7.47,0h0l-.5.46,2,2.22.5-.46-1-1.11,1,1.1a2.6,2.6,0,0,1,3.41,0,1.84,1.84,0,0,1,0,2.81,2.51,2.51,0,0,1-1.71.64H29.72v3h1.69a3,3,0,0,1,2,.73,2.07,2.07,0,0,1,0,3.17A3.07,3.07,0,0,1,29.43,22.18Z" fill="#edb049"/></g></g></svg>