<svg xmlns="http://www.w3.org/2000/svg" viewBox="0 0 15.95 15.94"><g id="Layer_2" data-name="Layer 2"><g id="Artwork"><path d="M11.44,8l-8-8V4.06H0v7.82H3.47v4.06ZM1,10.88V5.06H4.47V2.41L10,8,4.47,13.53V10.88Z"/><polygon points="7.17 9.28 5.86 7.97 7.17 6.66 6.46 5.95 4.45 7.97 6.46 9.99 7.17 9.28"/><polygon points="12.49 4.06 12.49 0 8.82 3.67 9.53 4.38 11.49 2.41 11.49 5.06 14.95 5.06 14.95 10.88 11.49 10.88 11.49 13.53 9.53 11.56 8.82 12.27 12.49 15.94 12.49 11.88 15.95 11.88 15.95 4.06 12.49 4.06"/></g></g></svg>
