<svg xmlns="http://www.w3.org/2000/svg" viewBox="0 0 14.71 16"><g id="Layer_2" data-name="Layer 2"><g id="Artwork"><path d="M7.35,15A1.56,1.56,0,0,1,6,14.15H4.9a2.55,2.55,0,0,0,4.9,0H8.74A1.57,1.57,0,0,1,7.35,15Z"/><path d="M14.21,10.66l-.41-.3L13,9.75V7.13A5.68,5.68,0,0,0,8.92,1.71V0H5.69V1.75a5.6,5.6,0,0,0-4,5.38V9.75l-.81.61-.4.3L0,11v2.74H14.71V11ZM2.71,7.13A4.61,4.61,0,0,1,6.3,2.62l.39-.09V1H7.92V2.51l.4.08A4.66,4.66,0,0,1,12,7.13V9.5H2.71Zm11,5.65H1V11.54l1.38-1h10l1.38,1Z"/></g></g></svg>
