<?xml version="1.0" encoding="UTF-8"?>
<svg width="18px" height="18px" viewBox="0 0 18 18" version="1.1" xmlns="http://www.w3.org/2000/svg" xmlns:xlink="http://www.w3.org/1999/xlink">
    <title>Graphic/Squad@1x</title>
    <defs>
        <polygon id="path-1" points="1.10088889 0.759375 9.46977778 0.759375 9.46977778 8.757675 1.10088889 8.757675"></polygon>
        <polygon id="path-3" points="0 0.859725 8.473275 0.859725 8.473275 8.757225 0 8.757225"></polygon>
        <polygon id="path-5" points="0 1.10205 8.473275 1.10205 8.473275 8.99955 0 8.99955"></polygon>
    </defs>
    <g id="Graphic/Squad" stroke="none" stroke-width="1" fill="none" fill-rule="evenodd">
        <g id="Group-12" transform="translate(-1.000000, 0.000000)">
            <g id="Group-3" transform="translate(9.647059, 0.000000)">
                <mask id="mask-2" fill="white">
                    <use xlink:href="#path-1"></use>
                </mask>
                <g id="Clip-2"></g>
                <path d="M5.28533333,6.770925 C6.36755556,6.770925 7.24755556,7.661925 7.24755556,8.757675 L9.46977778,8.757675 C9.46977778,7.04205 8.45311111,5.569425 7.002,4.903425 C7.42866667,4.46355 7.69311111,3.8628 7.69311111,3.1968 C7.69311111,1.850175 6.61533333,0.758925 5.28533333,0.758925 C3.95533333,0.758925 2.87755556,1.850175 2.87755556,3.1968 C2.87755556,3.8628 3.142,4.46355 3.56866667,4.903425 C2.11755556,5.569425 1.10088889,7.04205 1.10088889,8.757675 L3.32311111,8.757675 C3.32311111,7.661925 4.20311111,6.770925 5.28533333,6.770925" id="Fill-1" fill="#000000" mask="url(#mask-2)"></path>
            </g>
            <g id="Group-6" transform="translate(0.647059, 0.000000)">
                <mask id="mask-4" fill="white">
                    <use xlink:href="#path-3"></use>
                </mask>
                <g id="Clip-5"></g>
                <path d="M6.032025,4.934475 C6.428025,4.50135 6.6744,3.92985 6.6744,3.2976 C6.6744,1.950975 5.58315,0.859725 4.236525,0.859725 C2.891025,0.859725 1.79865,1.950975 1.79865,3.2976 C1.79865,3.92985 2.04615,4.50135 2.44215,4.934475 C1.003275,5.61285 -0.000225,7.06635 -0.000225,8.757225 L2.249775,8.757225 C2.249775,7.6626 3.1419,6.770475 4.236525,6.770475 C5.332275,6.770475 6.223275,7.6626 6.223275,8.757225 L8.473275,8.757225 C8.473275,7.065225 7.46865,5.61285 6.032025,4.934475" id="Fill-4" fill="#000000" mask="url(#mask-4)"></path>
            </g>
            <path d="M17.2880572,14.1451477 C17.695917,13.7052039 17.9487051,13.1043601 17.9487051,12.438256 C17.9487051,11.0925457 16.9184343,10 15.6470588,10 C14.3756834,10 13.3454125,11.0925457 13.3454125,12.438256 C13.3454125,13.1043601 13.5982006,13.7052039 14.0060604,14.1451477 C12.6189122,14.8112518 11.6470588,16.2841069 11.6470588,18 L13.7713286,18 C13.7713286,16.9052039 14.6125394,16.0129395 15.6470588,16.0129395 C16.6815782,16.0129395 17.522789,16.9052039 17.522789,18 L19.6470588,18 C19.6470588,16.2841069 18.6752054,14.8112518 17.2880572,14.1451477" id="Fill-7" fill="#000000"></path>
            <g id="Group-11" transform="translate(0.647059, 9.000000)">
                <mask id="mask-6" fill="white">
                    <use xlink:href="#path-5"></use>
                </mask>
                <g id="Clip-10"></g>
                <path d="M6.032025,5.1768 C6.428025,4.743675 6.6744,4.172175 6.6744,3.539925 C6.6744,2.1933 5.58315,1.10205 4.236525,1.10205 C2.891025,1.10205 1.79865,2.1933 1.79865,3.539925 C1.79865,4.172175 2.04615,4.743675 2.441025,5.1768 C1.003275,5.855175 -0.000225,7.308675 -0.000225,8.99955 L2.249775,8.99955 C2.249775,7.904925 3.1419,7.0128 4.236525,7.0128 C5.332275,7.0128 6.223275,7.904925 6.223275,8.99955 L8.473275,8.99955 C8.473275,7.30755 7.469775,5.855175 6.032025,5.1768" id="Fill-9" fill="#000000" mask="url(#mask-6)"></path>
            </g>
        </g>
    </g>
</svg>