<?xml version="1.0" encoding="UTF-8" standalone="no"?>
<svg
   xmlns:dc="http://purl.org/dc/elements/1.1/"
   xmlns:cc="http://creativecommons.org/ns#"
   xmlns:rdf="http://www.w3.org/1999/02/22-rdf-syntax-ns#"
   xmlns:svg="http://www.w3.org/2000/svg"
   xmlns="http://www.w3.org/2000/svg"
   xmlns:xlink="http://www.w3.org/1999/xlink"
   width="18"
   height="14.485875"
   viewBox="0 0 18 14.485875"
   version="1.1"
   id="svg847">
  <metadata
     id="metadata851">
    <rdf:RDF>
      <cc:Work
         rdf:about="">
        <dc:format>image/svg+xml</dc:format>
        <dc:type
           rdf:resource="http://purl.org/dc/dcmitype/StillImage" />
        <dc:title>Graphic/Duo@1x</dc:title>
      </cc:Work>
    </rdf:RDF>
  </metadata>
  <title
     id="title833">Graphic/Duo@1x</title>
  <defs
     id="defs836">
    <polygon
       id="path-1"
       points="8.473275,0.514125 8.473275,8.4114 0,8.4114 0,0.514125 " />
  </defs>
  <g
     id="Graphic/Duo"
     stroke="none"
     stroke-width="1"
     fill="none"
     fill-rule="evenodd"
     transform="translate(0,-3.514125)">
    <g
       id="Group-6"
       transform="translate(0,3)"
       style="stroke-width:1.00157;stroke-miterlimit:4;stroke-dasharray:none">
      <path
         d="M 15.640998,11.145148 C 16.048858,10.705204 16.301646,10.10436 16.301646,9.438256 16.301646,8.0925457 15.271376,7 14,7 c -1.271375,0 -2.301646,1.0925457 -2.301646,2.438256 0,0.666104 0.252788,1.266948 0.660648,1.706892 C 10.971853,11.811252 10,13.284107 10,15 h 2.12427 c 0,-1.094796 0.841211,-1.98706 1.87573,-1.98706 1.034519,0 1.87573,0.892264 1.87573,1.98706 H 18 c 0,-1.715893 -0.970791,-3.188748 -2.359002,-3.854852"
         id="Fill-1"
         fill="#000000"
         style="stroke-width:1.00157;stroke-miterlimit:4;stroke-dasharray:none" />
      <g
         id="Group-5"
         style="stroke-width:1.00157;stroke-miterlimit:4;stroke-dasharray:none">
        <mask
           id="mask-2"
           fill="#ffffff">
          <use
             xlink:href="#path-1"
             id="use839"
             x="0"
             y="0"
             width="100%"
             height="100%" />
        </mask>
        <g
           id="Clip-4"
           style="stroke-width:1.00157;stroke-miterlimit:4;stroke-dasharray:none" />
        <path
           d="M 6.032025,4.58865 C 6.428025,4.155525 6.6744,3.584025 6.6744,2.951775 6.6744,1.60515 5.58315,0.5139 4.236525,0.5139 c -1.3455,0 -2.437875,1.09125 -2.437875,2.437875 0,0.63225 0.2475,1.20375 0.6435,1.636875 C 1.003275,5.26815 -2.25e-4,6.720525 -2.25e-4,8.4114 h 2.25 c 0,-1.094625 0.892125,-1.98675 1.98675,-1.98675 1.09575,0 1.98675,0.892125 1.98675,1.98675 h 2.25 c 0,-1.690875 -1.004625,-3.144375 -2.44125,-3.82275"
           id="Fill-3"
           fill="#000000"
           mask="url(#mask-2)"
           style="stroke-width:1.00157;stroke-miterlimit:4;stroke-dasharray:none" />
      </g>
    </g>
  </g>
</svg>
