<svg xmlns="http://www.w3.org/2000/svg" viewBox="0 0 15.94 15.97"><g id="Layer_2" data-name="Layer 2"><g id="Artwork"><path d="M12.48,1.84V0h-9V1.84H0v.5C0,4.36,1.51,8,3.71,8.47c.56,2.46,2,4.25,3.76,4.53v2H4v1h8V15H8.47V13c1.76-.28,3.19-2.07,3.75-4.53,2.21-.5,3.72-4.11,3.72-6.13v-.5ZM1,2.84H3.45v3.3a11.53,11.53,0,0,0,.07,1.19C2.3,6.67,1.23,4.46,1,2.84Zm10.45,3.3C11.48,9.39,9.91,12,8,12S4.45,9.39,4.45,6.14V1h7Zm.93,1.19a9.28,9.28,0,0,0,.07-1.19V2.84H14.9C14.71,4.46,13.64,6.67,12.41,7.33Z"/><polygon points="7.61 4.51 7.61 6.84 6.8 6.84 6.8 7.84 9.43 7.84 9.43 6.84 8.61 6.84 8.61 3.06 6.63 3.81 6.98 4.75 7.61 4.51"/></g></g></svg>