<svg xmlns="http://www.w3.org/2000/svg" viewBox="0 0 63.92 63.94"><g id="Layer_2" data-name="Layer 2"><g id="Layer_1-2" data-name="Layer 1"><path d="M49.92,5.47V0H14.27V5.47H0V7C0,11.5,1.82,17.58,4.64,22.46c3,5.1,6.51,8.23,10.2,9,1.84,11.14,8,19.35,15.62,20.38v9.09H15.54v3H48.38v-3H33.46V51.88c7.8-.87,14.06-9.17,15.9-20.48,3.59-.88,7-4,9.92-8.94S63.92,11.5,63.92,7V5.47Zm-46.85,3h11.2v16c0,1.29.06,2.56.17,3.81C8.69,26,3.7,15.76,3.07,8.47Zm43.85,16C46.92,38,40.27,49,32.1,49S17.27,38,17.27,24.42V3H46.92Zm2.84,3.7c.1-1.21.16-2.45.16-3.7V8.47H60.85C60.23,15.64,55.39,25.67,49.76,28.12Z" fill="#eac326"/><polygon points="31.53 19.04 31.53 29.74 27.73 29.74 27.73 32.74 38.33 32.74 38.33 29.74 34.53 29.74 34.53 14.7 27.2 17.47 28.27 20.28 31.53 19.04" fill="#eac326"/></g></g></svg>