<svg xmlns="http://www.w3.org/2000/svg" viewBox="0 0 63.92 54.46"><g id="Layer_2" data-name="Layer 2"><g id="Layer_1-2" data-name="Layer 1"><path d="M49.92,5.47V0H14.27V5.47H0V7C0,11.5,1.82,17.58,4.64,22.46c3.32,5.74,7.41,9,11.58,9.19,2.7,8.18,8,13.88,14.24,14.73v5.08H15.54v3H48.38v-3H33.46V46.41C39.87,45.69,45.24,40,48,31.64c4.08-.35,8.07-3.57,11.31-9.18,2.82-4.88,4.64-11,4.64-15.49V5.47Zm-46.85,3h11.2V18.94a42.38,42.38,0,0,0,1.07,9.57C9.22,27.07,3.74,16.13,3.07,8.47ZM46.92,18.94c0,13.54-6.65,24.55-14.82,24.55s-14.83-11-14.83-24.55V3H46.92Zm1.95,9.49a42.32,42.32,0,0,0,1.05-9.49V8.47H60.85C60.19,16,54.87,26.73,48.87,28.43Z" fill="#c6c6d4"/><path d="M30.3,15a2.33,2.33,0,0,1,3.31,0,2.55,2.55,0,0,1-.07,3.38l-6.65,7.66L28,28.57h9.72v-3H31.31l4.55-5.25c1.86-2.42,1.81-5.47-.13-7.4a5.34,5.34,0,0,0-7.58,0,9,9,0,0,0-1.58,2.29l2.75,1.21A6.37,6.37,0,0,1,30.3,15Z" fill="#c6c6d4"/></g></g></svg>