<?xml version="1.0" encoding="UTF-8" standalone="no"?>
<svg
   xmlns:dc="http://purl.org/dc/elements/1.1/"
   xmlns:cc="http://creativecommons.org/ns#"
   xmlns:rdf="http://www.w3.org/1999/02/22-rdf-syntax-ns#"
   xmlns:svg="http://www.w3.org/2000/svg"
   xmlns="http://www.w3.org/2000/svg"
   xmlns:sodipodi="http://sodipodi.sourceforge.net/DTD/sodipodi-0.dtd"
   xmlns:inkscape="http://www.inkscape.org/namespaces/inkscape"
   viewBox="0 0 63.92 44.94"
   version="1.1"
   id="svg839"
   sodipodi:docname="4th-place.svg"
   inkscape:version="1.0.1 (c497b03c, 2020-09-10)">
  <metadata
     id="metadata845">
    <rdf:RDF>
      <cc:Work
         rdf:about="">
        <dc:format>image/svg+xml</dc:format>
        <dc:type
           rdf:resource="http://purl.org/dc/dcmitype/StillImage" />
        <dc:title></dc:title>
      </cc:Work>
    </rdf:RDF>
  </metadata>
  <defs
     id="defs843" />
  <sodipodi:namedview
     pagecolor="#ffffff"
     bordercolor="#666666"
     borderopacity="1"
     objecttolerance="10"
     gridtolerance="10"
     guidetolerance="10"
     inkscape:pageopacity="0"
     inkscape:pageshadow="2"
     inkscape:window-width="1920"
     inkscape:window-height="1027"
     id="namedview841"
     showgrid="false"
     inkscape:zoom="11.138924"
     inkscape:cx="27.740562"
     inkscape:cy="22.47"
     inkscape:window-x="0"
     inkscape:window-y="25"
     inkscape:window-maximized="1"
     inkscape:current-layer="svg839" />
  <g
     id="g859"
     style="fill:#aa8800">
    <path
       d="M 49.92,5.47 V 0 H 14.27 V 5.47 H 0 V 7 c 0,8.83 7.13,18.7 16.67,18.7 v -0.3 c 2.8,7.49 7.83,12.65 13.79,13.45 v 3.09 H 15.54 v 3 h 32.84 v -3 H 33.46 v -3.06 c 6,-0.67 11.1,-5.75 14,-13.22 9.46,-0.11 16.5,-9.92 16.5,-18.69 v -1.5 z m -46.84,3 h 11.19 v 2.94 a 41.33,41.33 0 0 0 1.49,11.2 C 9,22 3.79,15.05 3.08,8.47 Z m 43.84,2.94 C 46.92,25 40.27,36 32.1,36 23.93,36 17.27,25 17.27,11.41 V 3 H 46.92 Z M 48.44,22.6 A 41.77,41.77 0 0 0 49.92,11.41 V 8.47 H 60.84 C 60.14,15 55,21.85 48.44,22.6 Z"
       id="path833"
       style="fill:#aa8800" />
    <text
       xml:space="preserve"
       style="font-style:normal;font-weight:normal;font-size:27.59029999999999916px;line-height:1.25;font-family:sans-serif;fill:#aa8800;fill-opacity:1;stroke:none;stroke-width:0.689757"
       x="23.179722"
       y="28.099665"
       id="text854"><tspan
         sodipodi:role="line"
         id="tspan852"
         x="23.179722"
         y="28.099665"
         style="stroke-width:0.689757;fill:#aa8800">4</tspan></text>
  </g>
</svg>
