<?xml version="1.0" encoding="UTF-8" standalone="no"?>
<svg
   xmlns:dc="http://purl.org/dc/elements/1.1/"
   xmlns:cc="http://creativecommons.org/ns#"
   xmlns:rdf="http://www.w3.org/1999/02/22-rdf-syntax-ns#"
   xmlns:svg="http://www.w3.org/2000/svg"
   xmlns="http://www.w3.org/2000/svg"
   viewBox="0 0 15.61 14.72"
   version="1.1"
   id="svg1045">
  <metadata
     id="metadata1051">
    <rdf:RDF>
      <cc:Work
         rdf:about="">
        <dc:format>image/svg+xml</dc:format>
        <dc:type
           rdf:resource="http://purl.org/dc/dcmitype/StillImage" />
        <dc:title></dc:title>
      </cc:Work>
    </rdf:RDF>
  </metadata>
  <defs
     id="defs1049" />
  <g
     id="Layer_2"
     data-name="Layer 2"
     style="fill:#f3f5f8;fill-opacity:1">
    <g
       id="Artwork"
       style="fill:#f3f5f8;fill-opacity:1">
      <path
         d="M12.65,0l-.43,2.08H0l1.64,8h9.91l1.68-8L13.46,1h2.15V.5h0V0ZM2.46,9.1l-1.24-6H12l-1.27,6Z"
         id="path1037"
         style="fill:#f3f5f8;fill-opacity:1" />
      <path
         d="M3.8,10.53a2.1,2.1,0,1,0,2.1,2.1A2.1,2.1,0,0,0,3.8,10.53Zm0,3.19a1.1,1.1,0,1,1,1.1-1.09A1.09,1.09,0,0,1,3.8,13.72Z"
         id="path1039"
         style="fill:#f3f5f8;fill-opacity:1" />
      <path
         d="M9.71,10.53a2.1,2.1,0,1,0,2.09,2.1A2.1,2.1,0,0,0,9.71,10.53Zm0,3.19a1.1,1.1,0,1,1,1.09-1.09A1.09,1.09,0,0,1,9.71,13.72Z"
         id="path1041"
         style="fill:#f3f5f8;fill-opacity:1" />
    </g>
  </g>
</svg>
