<?xml version="1.0" encoding="UTF-8" standalone="no"?>
<svg
   xmlns:svg="http://www.w3.org/2000/svg"
   xmlns="http://www.w3.org/2000/svg"
   width="19px"
   height="18px"
   viewBox="0 0 19 18"
   version="1.1"
   id="svg855">


  <defs
     id="defs838">
    <filter
       id="filter-1">
      <feColorMatrix
         in="SourceGraphic"
         type="matrix"
         values="0 0 0 0 0.000000 0 0 0 0 0.000000 0 0 0 0 0.000000 0 0 0 1.000000 0"
         id="feColorMatrix835" />
    </filter>
  </defs>
  <g
     id="Symbols"
     stroke="none"
     stroke-width="1"
     fill="none"
     fill-rule="evenodd">
    <g
       id="Group-2"
       filter="url(#filter-1)">
      <g
         id="g851">
        <g
           id="Group"
           transform="translate(10.698223, 7.478553) rotate(45.000000) translate(-10.698223, -7.478553) translate(8.698223, -1.021447)"
           fill="#000000">
          <polygon
             id="Rectangle"
             points="0 3.75 3.75 3.75 3.75 13.75 1.875 16.25 0 13.75" />
          <rect
             id="rect841"
             x="0"
             y="0"
             width="3.75"
             height="2.5" />
        </g>
        <rect
           id="rect844"
           fill="#000000"
           transform="translate(4.500000, 2.000000) scale(1, -1) translate(-4.500000, -2.000000) "
           x="0"
           y="1"
           width="9"
           height="2" />
        <rect
           id="Rectangle-Copy"
           fill="#000000"
           x="15"
           y="9"
           width="2"
           height="9" />
        <rect
           id="rect847"
           fill="#000000"
           x="0"
           y="2"
           width="2"
           height="16" />
        <rect
           id="rect849"
           fill="#000000"
           x="0"
           y="16"
           width="16"
           height="2" />
      </g>
    </g>
  </g>
  <path
     d="M 0,9.4936798 V 1.0077247 H 4.4964888 8.9929775 V 1.9950843 2.9824438 H 5.4838483 1.9747191 v 6.511236 6.5112362 H 8.4992978 15.023876 V 12.509129 9.0133427 h 0.98736 0.98736 v 4.4831463 4.483146 H 8.4992978 0 Z"
     id="path861" />
  <path
     d="m 5.1502127,12.838918 c -3.76e-5,-0.0126 0.096641,-0.701383 0.2148424,-1.530631 L 5.5799658,9.8005618 9.1144105,6.2647704 12.648855,2.728979 l 1.314231,1.3142305 1.31423,1.3142304 -3.529477,3.529552 -3.5294763,3.5295521 -1.4739987,0.208832 c -0.8106994,0.114858 -1.5010178,0.215046 -1.534041,0.222641 -0.033023,0.0076 -0.060073,0.0035 -0.06011,-0.0091 z"
     id="path863" />
  <path
     d="M 14.870283,3.1357338 13.556128,1.8213775 14.430226,0.9475807 15.304324,0.07378391 16.605111,1.3750442 c 0.715433,0.7156932 1.300788,1.313171 1.300788,1.3277283 0,0.014558 -0.387329,0.4136592 -0.860731,0.8868926 L 16.184438,4.45009 Z"
     id="path865" />
  <path
     d="m 5.1755367,12.80934 c -7.862e-4,-0.01101 0.092162,-0.689384 0.2065522,-1.507503 L 5.5900706,9.8143485 9.1194754,6.2850193 12.64888,2.75569 13.949768,4.0565777 15.250656,5.3574654 11.727946,8.8801748 8.2052367,12.402884 6.7163,12.616119 C 5.0944326,12.848391 5.1775813,12.837964 5.1755367,12.80934 Z"
     id="path867" />
</svg>
