<svg xmlns="http://www.w3.org/2000/svg" viewBox="0 0 16.11 15.95"><g id="Layer_2" data-name="Layer 2"><g id="Artwork"><path d="M2.3,3.35a2.22,2.22,0,0,0,.38.37A1.67,1.67,0,0,0,3.11,4a1.94,1.94,0,0,0,.8.16,2,2,0,0,0,1.23-.41A3,3,0,0,1,6.81,5.66h0c.16,0,.31-.09.47-.12a4.4,4.4,0,0,1,.51,0,4,4,0,0,0-2-2.57A2,2,0,0,0,6,2.07,2.07,2.07,0,0,0,3.91,0a2.11,2.11,0,0,0-.8.16A2.09,2.09,0,0,0,2.2.91a2,2,0,0,0-.17,2A4,4,0,0,0,0,5.55l1,.23,0-.12A3,3,0,0,1,2.68,3.72,2.22,2.22,0,0,1,2.3,3.35Zm.54-1.28A1.07,1.07,0,0,1,5,2.07a1,1,0,0,1-.15.5A1,1,0,0,1,4.41,3a1.07,1.07,0,0,1-.5.14A1.07,1.07,0,0,1,3.41,3,1,1,0,0,1,3,2.57,1,1,0,0,1,2.84,2.07Z"/><path d="M14.08,2.92A2,2,0,0,0,13.66.61,2.1,2.1,0,0,0,13,.16,2.17,2.17,0,0,0,12.2,0a2.07,2.07,0,0,0-2.06,2.07,2.19,2.19,0,0,0,.18.85,4,4,0,0,0-2,2.57,4.4,4.4,0,0,1,.51,0c.15,0,.3.08.44.12h0A3,3,0,0,1,11,3.72a2,2,0,0,0,1.23.41A2,2,0,0,0,13,4a1.79,1.79,0,0,0,.42-.25,2.11,2.11,0,0,0,.23-.19,2.11,2.11,0,0,1-.23.19A3,3,0,0,1,15.1,5.66s0,.08,0,.12l1-.23A4,4,0,0,0,14.08,2.92Zm-2.94-.85a1.07,1.07,0,1,1,2.13,0,1.07,1.07,0,0,1-.14.5A1.09,1.09,0,0,1,12.7,3a1,1,0,0,1-.5.14A1.07,1.07,0,0,1,11.7,3a1.06,1.06,0,0,1-.42-.42A1.07,1.07,0,0,1,11.14,2.07Z"/><path d="M11.71,11.89h0a5.47,5.47,0,0,0-.65-.41,3.42,3.42,0,0,0,.49-1.74A3.52,3.52,0,0,0,10,6.83a3.47,3.47,0,0,0-2-.6H8a3.48,3.48,0,0,0-.79.09,3.73,3.73,0,0,0-.73.26,2.76,2.76,0,0,0-.44.25,4.24,4.24,0,0,0-.52.43A3.48,3.48,0,0,0,4.61,9a3.59,3.59,0,0,0,0,1.41,3.64,3.64,0,0,0,.41,1,5.47,5.47,0,0,0-.65.41h0a6.4,6.4,0,0,0-2.62,3.83l1,.23,0-.12A5.42,5.42,0,0,1,5,12.69a5.9,5.9,0,0,1,.69-.4,3.47,3.47,0,0,0,4.77,0,5.9,5.9,0,0,1,.69.4h0a5.45,5.45,0,0,1,2.2,3.14l0,.12,1-.23A6.36,6.36,0,0,0,11.71,11.89ZM5.54,9.74a2.51,2.51,0,1,1,4.61,1.34,2.47,2.47,0,0,1-3.36.81,2.71,2.71,0,0,1-.51-.38,2.38,2.38,0,0,1-.34-.43A2.48,2.48,0,0,1,5.54,9.74Z"/></g></g></svg>