<svg xmlns="http://www.w3.org/2000/svg" xmlns:xlink="http://www.w3.org/1999/xlink" viewBox="0 0 12 12"><defs><radialGradient id="radial-gradient" cx="6" cy="6" r="6" gradientUnits="userSpaceOnUse"><stop offset="0" stop-color="#ffd994"/><stop offset="0.22" stop-color="#ffd892"/><stop offset="0.34" stop-color="#ffd689"/><stop offset="0.44" stop-color="#ffd27b"/><stop offset="0.53" stop-color="#ffcd67"/><stop offset="0.62" stop-color="#ffc64d"/><stop offset="0.69" stop-color="#ffbe2d"/><stop offset="0.76" stop-color="#ffb408"/><stop offset="0.78" stop-color="#ffb200"/></radialGradient><linearGradient id="linear-gradient" x1="1.76" y1="10.24" x2="10.24" y2="1.76" gradientUnits="userSpaceOnUse"><stop offset="0" stop-color="#cc8d27"/><stop offset="0.2" stop-color="#cf8f27"/><stop offset="0.33" stop-color="#d79429"/><stop offset="0.43" stop-color="#e59e2c"/><stop offset="0.52" stop-color="#f9ac30"/><stop offset="0.54" stop-color="#ffb031"/><stop offset="0.67" stop-color="#fbad30"/><stop offset="0.8" stop-color="#efa52e"/><stop offset="0.93" stop-color="#da972a"/><stop offset="1" stop-color="#cc8d27"/></linearGradient></defs><g id="Layer_2" data-name="Layer 2"><g id="Layer_1-2" data-name="Layer 1"><circle cx="6" cy="6" r="6" fill="url(#radial-gradient)"/><path d="M6,1.25A4.75,4.75,0,1,1,1.25,6,4.75,4.75,0,0,1,6,1.25M6,0a6,6,0,1,0,6,6A6,6,0,0,0,6,0Z" fill="url(#linear-gradient)"/><path d="M7.66,3.79A1.8,1.8,0,0,0,6,5l-.19.53V2.22l-1.3.17V3.86l-.12,0a1.65,1.65,0,0,0-.38,0A1.81,1.81,0,1,0,5.71,6h.2A1.79,1.79,0,0,0,7.22,7.34a1.64,1.64,0,0,0,.88,0l.12,0v.28c0,.53-.09.86-.56.86-.13,0-.52,0-.56-.69H5.86a1.8,1.8,0,0,0,3.6-.1V5.59A1.81,1.81,0,0,0,7.66,3.79ZM3.93,6.18a.59.59,0,1,1,.59-.58A.58.58,0,0,1,3.93,6.18Zm3.75,0a.55.55,0,1,1,.54-.54A.54.54,0,0,1,7.68,6.14Z" fill="#bf8424" stroke="#f2ab38" stroke-miterlimit="10" stroke-width="0.25"/><path d="M6,1a5,5,0,1,0,5,5A5,5,0,0,0,6,1Z" fill="none" stroke="#bf8237" stroke-miterlimit="10" stroke-width="0.26"/></g></g></svg>