<svg xmlns="http://www.w3.org/2000/svg" viewBox="0 0 16 9.64"><g id="Layer_2" data-name="Layer 2"><g id="Artwork"><path d="M15.94,6.88l-1-5A2.54,2.54,0,0,0,12.51,0h-9A2.54,2.54,0,0,0,1.05,1.87l-1,5A2.2,2.2,0,0,0,2.17,9.64,2.34,2.34,0,0,0,4.66,8a.82.82,0,0,1,.79-.65h5.1a.82.82,0,0,1,.79.65,2.32,2.32,0,0,0,2.49,1.63A2.2,2.2,0,0,0,15.94,6.88Zm-1.2,1.33a1.21,1.21,0,0,1-.91.43c-1.12,0-1.41-.53-1.54-.92a1.79,1.79,0,0,0-1.74-1.36H5.45A1.81,1.81,0,0,0,3.7,7.72c-.18.62-.69.92-1.53.92a1.21,1.21,0,0,1-.91-.43A1.36,1.36,0,0,1,1,7.07l1-5A1.51,1.51,0,0,1,3.49,1h9A1.51,1.51,0,0,1,14,2.1l1,5A1.36,1.36,0,0,1,14.74,8.21Z"/><polygon points="5.94 2.33 5.19 2.33 5.19 3.41 4.11 3.41 4.11 4.16 5.19 4.16 5.19 5.24 5.94 5.24 5.94 4.16 7.02 4.16 7.02 3.41 5.94 3.41 5.94 2.33"/><path d="M10.54,2.33A1.46,1.46,0,1,0,12,3.78,1.45,1.45,0,0,0,10.54,2.33Zm0,2.16a.71.71,0,0,1-.7-.71.71.71,0,0,1,1.41,0A.71.71,0,0,1,10.54,4.49Z"/></g></g></svg>