<svg xmlns="http://www.w3.org/2000/svg" viewBox="0 0 16 16"><g id="Layer_2" data-name="Layer 2"><g id="Artwork"><polygon points="8.5 10.42 8.5 8.5 10.42 8.5 10.42 7.5 8.5 7.5 8.5 5.58 7.5 5.58 7.5 7.5 5.58 7.5 5.58 8.5 7.5 8.5 7.5 10.42 8.5 10.42"/><path d="M13.26,3.94v-1H11.91L8,0,4.09,2.93H2.75v1L0,6V16H16V6Zm1.56,2.42L13.26,7.7V5.19ZM8,1.25l2.24,1.68H5.76ZM3.75,3.93h8.51V8.56L8,12.22,3.75,8.56Zm-1,1.26V7.7L1.19,6.36ZM15,15H1V7.52l6.68,5.73a.45.45,0,0,0,.32.13.48.48,0,0,0,.33-.13L15,7.52Z"/></g></g></svg>
