<svg xmlns="http://www.w3.org/2000/svg" viewBox="0 0 15.92 16"><g id="Layer_2" data-name="Layer 2"><g id="Artwork"><path d="M11.29,5.63a3.85,3.85,0,0,0,.48-1.82,3.8,3.8,0,0,0-.65-2.13A3.52,3.52,0,0,0,10.4.91,3.88,3.88,0,0,0,9,.17,3.74,3.74,0,0,0,8,0,3.86,3.86,0,0,0,6.64.24,4.11,4.11,0,0,0,5.52.91a3.52,3.52,0,0,0-.72.77,3.8,3.8,0,0,0-.65,2.13,3.75,3.75,0,0,0,.49,1.82A8.12,8.12,0,0,0,0,11.24l.49.12h0l.48.11s0-.07,0-.11A7.12,7.12,0,0,1,5.25,6.48,4.55,4.55,0,0,0,5.83,7a3.9,3.9,0,0,0,1.36.57A3.94,3.94,0,0,0,8,7.62a3.87,3.87,0,0,0,.77-.08A3.74,3.74,0,0,0,10.09,7a4.55,4.55,0,0,0,.58-.49,7.12,7.12,0,0,1,4.24,4.88s0,.07,0,.11l.49-.11h0l.48-.12A8.13,8.13,0,0,0,11.29,5.63ZM8,6.62a2.87,2.87,0,0,1-1.58-.49,3.08,3.08,0,0,1-.47-.42,2.59,2.59,0,0,1-.32-.42,2.81,2.81,0,1,1,4.75,0,3.39,3.39,0,0,1-.33.42,2.67,2.67,0,0,1-.47.42A2.76,2.76,0,0,1,8,6.62Z"/><path d="M13.57,11.36,13.32,10a2.16,2.16,0,0,0-2.09-1.61H4.69A2.17,2.17,0,0,0,2.6,10l-.25,1.35L2,13.58a2,2,0,0,0,.39,1.71A2,2,0,0,0,3.83,16,2.08,2.08,0,0,0,6,14.51l4,.05A2,2,0,0,0,12.09,16a2,2,0,0,0,1.5-.71,2,2,0,0,0,.39-1.7Zm-.77,3.28a1,1,0,0,1-.71.34A1,1,0,0,1,11,14.27a1,1,0,0,0-1-.79H6a1.05,1.05,0,0,0-1,.79A1,1,0,0,1,3.83,15a.91.91,0,0,1-.7-.34A1,1,0,0,1,3,13.77l.44-2.41.2-1.13a1.14,1.14,0,0,1,1.1-.84h6.54a1.12,1.12,0,0,1,1.09.8l.22,1.17L13,13.78A1,1,0,0,1,12.8,14.64Z"/><polygon points="6.29 10.34 5.54 10.34 5.54 11.15 4.73 11.15 4.73 11.36 4.73 11.9 5.54 11.9 5.54 12.71 6.29 12.71 6.29 11.9 7.1 11.9 7.1 11.36 7.1 11.15 6.29 11.15 6.29 10.34"/><path d="M10.07,10.27a1.25,1.25,0,0,0-1.23,1.09c0,.06,0,.11,0,.17a1.26,1.26,0,0,0,2.51,0c0-.06,0-.11,0-.17A1.25,1.25,0,0,0,10.07,10.27Zm0,1.91a.65.65,0,0,1-.66-.65.86.86,0,0,1,0-.17.64.64,0,0,1,1.25,0,.86.86,0,0,1,0,.17A.65.65,0,0,1,10.07,12.18Z"/></g></g></svg>
