<?xml version="1.0" encoding="UTF-8" standalone="no"?>
<svg
   xmlns:dc="http://purl.org/dc/elements/1.1/"
   xmlns:cc="http://creativecommons.org/ns#"
   xmlns:rdf="http://www.w3.org/1999/02/22-rdf-syntax-ns#"
   xmlns:svg="http://www.w3.org/2000/svg"
   xmlns="http://www.w3.org/2000/svg"
   xmlns:xlink="http://www.w3.org/1999/xlink"
   width="19.469778"
   height="17.140499"
   viewBox="0 0 19.469778 17.140499"
   version="1.1"
   id="svg1097">
  <metadata
     id="metadata1101">
    <rdf:RDF>
      <cc:Work
         rdf:about="">
        <dc:format>image/svg+xml</dc:format>
        <dc:type
           rdf:resource="http://purl.org/dc/dcmitype/StillImage" />
        <dc:title>Graphic/Trio@1x</dc:title>
      </cc:Work>
    </rdf:RDF>
  </metadata>
  <title
     id="title1070">Graphic/Trio@1x</title>
  <defs
     id="defs1075">
    <polygon
       id="path-1"
       points="8.4053333,0.8595 8.4053333,8.7577875 0.036444444,8.7577875 0.036444444,0.8595 " />
    <polygon
       id="path-3"
       points="8.4697778,0.001475 8.4697778,8 0.10088889,8 0.10088889,0.001475 " />
    <polygon
       id="path-5"
       points="8.473275,0.1026125 8.473275,8 0,8 0,0.1026125 " />
  </defs>
  <g
     id="Graphic/Trio"
     stroke="none"
     stroke-width="1"
     fill="none"
     fill-rule="evenodd"
     transform="translate(1,-0.8595)">
    <g
       id="Group-10"
       transform="translate(-1)">
      <g
         id="Group-3"
         transform="translate(5)">
        <mask
           id="mask-2"
           fill="#ffffff">
          <use
             xlink:href="#path-1"
             id="use1077"
             x="0"
             y="0"
             width="100%"
             height="100%" />
        </mask>
        <g
           id="Clip-2" />
        <path
           d="m 8.4053333,8.7577875 c 0,-1.692 -0.9911111,-3.144375 -2.4111111,-3.82275 0.39,-0.433125 0.6344445,-1.004625 0.6344445,-1.638 0,-1.3455 -1.0777778,-2.437875 -2.4077778,-2.437875 -1.33,0 -2.4077778,1.092375 -2.4077778,2.437875 0,0.633375 0.2444445,1.20375 0.6344445,1.638 -1.42,0.678375 -2.41111116,2.13075 -2.41111116,3.82275 H 2.2586667 c 0,-1.09575 0.88,-1.98675 1.9622222,-1.98675 1.0822222,0 1.9622222,0.891 1.9622222,1.98675 z"
           id="Fill-1"
           fill="#000000"
           mask="url(#mask-2)" />
      </g>
      <g
         id="Group-6"
         transform="translate(11,10)">
        <mask
           id="mask-4"
           fill="#ffffff">
          <use
             xlink:href="#path-3"
             id="use1083"
             x="0"
             y="0"
             width="100%"
             height="100%" />
        </mask>
        <g
           id="Clip-5" />
        <path
           d="M 6.002,4.145975 C 6.4286667,3.7061 6.6931111,3.104225 6.6931111,2.43935 c 0,-1.3455 -1.0777778,-2.437875 -2.4077778,-2.437875 -1.33,0 -2.4077777,1.092375 -2.4077777,2.437875 0,0.666 0.2644444,1.26675 0.6911111,1.706625 -1.4511111,0.666 -2.46777781,2.138625 -2.46777781,3.85425 H 2.3231111 c 0,-1.09575 0.88,-1.98675 1.9622222,-1.98675 1.0822223,0 1.9622223,0.891 1.9622223,1.98675 H 8.4697778 C 8.4697778,6.2846 7.4531111,4.811975 6.002,4.145975"
           id="Fill-4"
           fill="#000000"
           mask="url(#mask-4)" />
      </g>
      <g
         id="Group-9"
         transform="translate(0,10)">
        <mask
           id="mask-6"
           fill="#ffffff">
          <use
             xlink:href="#path-5"
             id="use1089"
             x="0"
             y="0"
             width="100%"
             height="100%" />
        </mask>
        <g
           id="Clip-8" />
        <path
           d="M 6.032025,4.1773625 C 6.4269,3.7442375 6.6744,3.1727375 6.6744,2.5404875 c 0,-1.346625 -1.09125,-2.437875 -2.437875,-2.437875 -1.3455,0 -2.437875,1.09125 -2.437875,2.437875 0,0.63225 0.2475,1.20375 0.6435,1.636875 -1.438875,0.678375 -2.442375,2.13075 -2.442375,3.82275 h 2.25 c 0,-1.09575 0.892125,-1.98675 1.98675,-1.98675 1.09575,0 1.98675,0.891 1.98675,1.98675 h 2.25 c 0,-1.692 -1.004625,-3.144375 -2.44125,-3.82275"
           id="Fill-7"
           fill="#000000"
           mask="url(#mask-6)" />
      </g>
    </g>
  </g>
</svg>
