<?xml version="1.0" encoding="UTF-8" standalone="no"?>
<svg
   xmlns:dc="http://purl.org/dc/elements/1.1/"
   xmlns:cc="http://creativecommons.org/ns#"
   xmlns:rdf="http://www.w3.org/1999/02/22-rdf-syntax-ns#"
   xmlns:svg="http://www.w3.org/2000/svg"
   xmlns="http://www.w3.org/2000/svg"
   xmlns:xlink="http://www.w3.org/1999/xlink"
   width="8.4732752"
   height="7.897275"
   viewBox="0 0 8.4732752 7.8972749"
   version="1.1"
   id="svg1678">
  <metadata
     id="metadata1682">
    <rdf:RDF>
      <cc:Work
         rdf:about="">
        <dc:format>image/svg+xml</dc:format>
        <dc:type
           rdf:resource="http://purl.org/dc/dcmitype/StillImage" />
        <dc:title>Graphic/Duo@1x</dc:title>
      </cc:Work>
    </rdf:RDF>
  </metadata>
  <title
     id="title1664">Graphic/Duo@1x</title>
  <defs
     id="defs1667">
    <polygon
       id="path-1"
       points="8.473275,8.4114 0,8.4114 0,0.514125 8.473275,0.514125 " />
  </defs>
  <g
     id="Group-6"
     transform="translate(0,-0.514125)"
     style="fill:none;fill-rule:evenodd;stroke:none;stroke-width:1">
    <g
       id="Group-5">
      <mask
         id="mask-2"
         fill="#ffffff">
        <use
           xlink:href="#path-1"
           id="use1670"
           x="0"
           y="0"
           width="100%"
           height="100%" />
      </mask>
      <g
         id="Clip-4" />
      <path
         d="M 6.032025,4.58865 C 6.428025,4.155525 6.6744,3.584025 6.6744,2.951775 6.6744,1.60515 5.58315,0.5139 4.236525,0.5139 c -1.3455,0 -2.437875,1.09125 -2.437875,2.437875 0,0.63225 0.2475,1.20375 0.6435,1.636875 C 1.003275,5.26815 -2.25e-4,6.720525 -2.25e-4,8.4114 h 2.25 c 0,-1.094625 0.892125,-1.98675 1.98675,-1.98675 1.09575,0 1.98675,0.892125 1.98675,1.98675 h 2.25 c 0,-1.690875 -1.004625,-3.144375 -2.44125,-3.82275"
         id="Fill-3"
         fill="#000000"
         mask="url(#mask-2)" />
    </g>
  </g>
</svg>
