<svg xmlns="http://www.w3.org/2000/svg" viewBox="0 0 255.17 255.61"><g id="Layer_2" data-name="Layer 2"><g id="Artwork"><path d="M10.09,134.89A79.2,79.2,0,0,1,7.71,120v-.12a25.68,25.68,0,0,1,8.2-22.13c5.7-5.33,13.66-8.36,20.38-7.94l1.42-3.88c-8-.92-17.74,2.56-24.53,8.89a29.94,29.94,0,0,0-9.45,25.41A81.81,81.81,0,0,0,6.25,136s.2.68.45,1.93S8.92,150.45,0,155.85l2.07,3.42c8.55-5.18,10-15.17,8.55-22.15A22.29,22.29,0,0,0,10.09,134.89Z"/><path d="M61.6,159.34l5.75,1.75,1.16-3.83-6.24-1.89c.07-.65.12-1.3.16-2l2.39-6.76,1.73.64A5.53,5.53,0,0,0,74,141.32l0-.25-5.71-14a3.77,3.77,0,0,1,.12-1.35,9.91,9.91,0,0,1,.72-.85,5.71,5.71,0,0,0,1.93-3.8c.13-17-6.78-27.34-22.09-32.52l-1.38,3.77C61.18,96.91,67.11,105.87,67,121a4.72,4.72,0,0,1-.89,1.16c-.31.35-.67.75-1,1.18a6.49,6.49,0,0,0-.7,4.93L70,142.07a1.5,1.5,0,0,1-.57,1.2,1.52,1.52,0,0,1-1.5.25l-5.55-2.07-3.94,11.16v.3c0,.44-.06.85-.1,1.27L34.5,147l-.93-8.35a15.47,15.47,0,0,0,1.94-.6A15.2,15.2,0,0,0,37,110.41L41.2,98.82,44,91.25l1.38-3.78,1.31-3.6-3.75-1.38-1.49,4.06L40,90.35l-2.6,7.1L33.21,109a15.21,15.21,0,1,0-3.61,30.05l1.21,11,27,8.15c-.76,3.24-2.11,5.48-4.07,6.65-3.48,2.09-9.33,1.19-17.45-2.71a7.31,7.31,0,0,0-7.55,1.49c-1.28,1.21-3.17,4-1.33,8.89l3.75-1.4c-.54-1.44-.92-3.4.33-4.58a3.38,3.38,0,0,1,3.12-.77c9.48,4.56,16.41,5.38,21.19,2.52C58.6,166.56,60.56,163.56,61.6,159.34Zm-42-39.93a11.2,11.2,0,0,1,6.16-6,11.39,11.39,0,0,1,4.13-.79,11.22,11.22,0,1,1-10.29,6.76Z"/><path d="M248.47,137.91c.25-1.25.45-1.92.48-2a81.9,81.9,0,0,0,2.5-15.68A29.94,29.94,0,0,0,242,94.81c-6.63-6.19-16.05-9.65-24-9l1.43,3.92c6.61-.23,14.28,2.79,19.82,8a25.68,25.68,0,0,1,8.2,22.13V120a78.81,78.81,0,0,1-2.36,14.82c0,.08-.26.87-.55,2.31-1.4,7,0,17,8.55,22.15l2.07-3.42C246.25,150.45,248.22,139.17,248.47,137.91Z"/><polygon points="146.13 127.31 103.13 84.31 103.13 106.07 80.61 106.07 80.61 110.07 107.13 110.07 107.13 93.97 140.48 127.31 107.13 160.66 107.13 144.55 83.61 144.55 83.61 148.55 103.13 148.55 103.13 170.31 146.13 127.31"/><polygon points="122.18 114.1 108.97 127.31 122.17 140.52 125 137.69 114.62 127.31 125.01 116.93 122.18 114.1"/><polygon points="171.09 144.55 147.97 144.55 147.97 160.65 132.67 145.36 129.84 148.18 151.97 170.31 151.97 148.55 171.09 148.55 171.09 144.55"/><polygon points="147.97 93.97 147.97 110.07 174.09 110.07 174.09 106.07 151.97 106.07 151.97 84.31 129.85 106.43 132.67 109.26 147.97 93.97"/><path d="M230.85,109.72A15.14,15.14,0,0,0,222,109L217.8,97.63l-2.66-7.28-1.39-3.8-1.48-4.06-3.76,1.38,1.32,3.6,1.37,3.78L214,99l4.17,11.4A15.2,15.2,0,0,0,219.66,138a15.47,15.47,0,0,0,1.94.6l-.93,8.35-23.85,7.21c0-.42-.07-.83-.09-1.27l0-.3-3.94-11.16-5.55,2.07a1.54,1.54,0,0,1-2.07-1.45l5.55-13.63.05-.16a6.53,6.53,0,0,0-.69-4.93,15.41,15.41,0,0,0-1-1.18,5.1,5.1,0,0,1-.89-1.14c-.11-15.35,6-24.35,20-28.9l-1.37-3.76c-15.68,5.12-22.74,15.49-22.61,32.69a5.71,5.71,0,0,0,1.93,3.8c.27.3.53.58.68.79a3.43,3.43,0,0,1,.16,1.41l-5.7,14,0,.25a5.53,5.53,0,0,0,7.42,5.94l1.74-.64,2.38,6.76c0,.69.1,1.34.16,2l-6.24,1.89,1.16,3.83,5.75-1.75c1.05,4.22,3,7.22,5.86,8.93,4.77,2.86,11.7,2,21.12-2.49a3.35,3.35,0,0,1,3.18.74c1.26,1.18.88,3.14.34,4.58l3.74,1.4c1.84-4.91,0-7.68-1.33-8.89a7.3,7.3,0,0,0-7.6-1.46c-8.06,3.87-13.91,4.77-17.4,2.68-1.95-1.17-3.3-3.41-4.06-6.65L224.36,150l1.22-11a15.21,15.21,0,0,0,5.27-29.35Zm-9.72,24.58a11.22,11.22,0,0,1,4.12-21.65,11.39,11.39,0,0,1,4.13.79,11.22,11.22,0,0,1-8.25,20.86Z"/><path d="M200.19,231.72c.14-.82.26-1.25.28-1.33A56.78,56.78,0,0,0,202,219.57a21,21,0,0,0-7-17.65c-4.68-4.21-11.27-6.5-16.81-5.94l1.43,3.92a19.56,19.56,0,0,1,12.71,5A16.84,16.84,0,0,1,198,219.3v.12a53.3,53.3,0,0,1-1.38,10,15.4,15.4,0,0,0-.36,1.64c-.89,5,.25,12,6.41,15.61l2-3.46C198.91,239.82,200,232.54,200.19,231.72Z"/><path d="M187.43,212.08a11,11,0,0,0-5.88-.49l-3.19-8.24-1.22-3.15-1.46-3.77-.7-1.79-1.86.72-1.87.73.52,1.33,1.45,3.74,1.38,3.57,3.22,8.3a11,11,0,0,0,2.79,19.9v0l-.43,4.67-14.5,4.7-.46.15v-.05l0-.3-3.09-8.24-4.35,1.72a.38.38,0,0,1-.39,0,.37.37,0,0,1-.15-.22l3.53-9.19.06-.17a5.08,5.08,0,0,0-.64-3.9c-.23-.29-.48-.57-.74-.84s-.35-.38-.45-.51c-.22-9.78,3.29-15.56,11.8-18.79l-1.36-3.74c-10.23,3.87-14.75,11.12-14.44,22.8a4.5,4.5,0,0,0,1.54,3c.13.14.26.27.38.41s.06.38.07.47l-3.7,9.61,0,.25a4.4,4.4,0,0,0,6,4.61l.57-.22,1.45,3.87c0,.26.06.5.08.76l-3.18,1,.61,1.9.62,1.91,2.73-.89a9.56,9.56,0,0,0,4.19,5.74c3.49,2,8.39,1.35,14.92-1.95a1.66,1.66,0,0,1,1.47.36c.61.54.39,1.62.11,2.42l3.78,1.33c1.35-3.85-.39-6-1.2-6.72a5.6,5.6,0,0,0-5.91-1c-5.22,2.64-9,3.34-11.18,2.08a5.76,5.76,0,0,1-2.4-3.49l18-5.84.68-7.35a11,11,0,0,0,2.83-21.22Zm-.94,16.64a7,7,0,1,1-.46-12.89,6.89,6.89,0,0,1,3.91,3.64,7,7,0,0,1,.19,5.34A6.89,6.89,0,0,1,186.49,228.72Zm-3.75,2.92Z"/><path d="M192.34,10.26A16.82,16.82,0,0,1,198,24.67v.12a53.35,53.35,0,0,1-1.38,9.94,15.4,15.4,0,0,0-.36,1.64c-.89,5,.25,12,6.41,15.61l2-3.46c-5.76-3.34-4.63-10.62-4.48-11.44s.26-1.25.28-1.33A56.82,56.82,0,0,0,202,24.94a21,21,0,0,0-7-17.66C190.33,3.07,183.74.79,178.2,1.34l1.43,3.92A19.56,19.56,0,0,1,192.34,10.26Z"/><path d="M154.93,44.11a4.36,4.36,0,0,0,4.3.6l.57-.22,1.45,3.87c0,.27.06.51.08.76l-3.18,1,.61,1.9h0l.62,1.91,2.73-.89a9.54,9.54,0,0,0,4.19,5.74c3.48,2,8.38,1.35,14.92-2a1.69,1.69,0,0,1,1.47.36c.61.55.39,1.62.11,2.42L186.58,61c1.35-3.85-.39-6-1.2-6.72a5.61,5.61,0,0,0-5.91-1c-5.22,2.64-9,3.34-11.18,2.08a5.76,5.76,0,0,1-2.4-3.49l18-5.84.68-7.35a11,11,0,1,0-3-21.71l-3.19-8.23-1.22-3.16-1.46-3.77L175,0l-3.73,1.45.52,1.33,1.45,3.74,1.38,3.57,3.22,8.31a11,11,0,0,0,2.79,19.89v.05L180.18,43l-14.5,4.7-.46.15v0l0-.3-3.09-8.24L157.76,41a.42.42,0,0,1-.54-.28l3.53-9.19.06-.17a5.08,5.08,0,0,0-.64-3.9c-.23-.29-.48-.57-.74-.84a6.34,6.34,0,0,1-.45-.51c-.22-9.78,3.29-15.56,11.8-18.79l-1.36-3.74C159.19,7.45,154.67,14.7,155,26.39a4.52,4.52,0,0,0,1.54,3c.13.13.26.27.38.41s.06.37.07.46l-3.7,9.61,0,.25A4.36,4.36,0,0,0,154.93,44.11Zm25.76-22.73a7,7,0,0,1,9.25,3.45,7,7,0,1,1-9.25-3.45Z"/><path d="M58.93,229.45h0a53.17,53.17,0,0,1-1.41-10v-.12a16.84,16.84,0,0,1,5.65-14.4,19.56,19.56,0,0,1,12.71-5L77.31,196c-5.53-.55-12.12,1.73-16.81,5.94a21,21,0,0,0-7,17.65,56.39,56.39,0,0,0,1.53,10.89s.12.44.27,1.26,1.27,8.1-4.49,11.44l2,3.46C59,243.05,60.16,236,59.26,231,59.08,230,58.93,229.45,58.93,229.45Z"/><path d="M102.25,234.49l-3.69-9.58a2.14,2.14,0,0,1,.06-.5c.11-.14.25-.27.37-.41a4.46,4.46,0,0,0,1.54-3c.31-11.68-4.2-18.93-14.43-22.8L84.73,202c8.51,3.23,12,9,11.81,18.79-.1.13-.31.35-.45.51a9.67,9.67,0,0,0-.74.84,5.09,5.09,0,0,0-.65,3.9l3.59,9.36a.35.35,0,0,1-.14.22.41.41,0,0,1-.4,0l-4.35-1.72-3.09,8.24,0,.3v.05l-.46-.15-14.5-4.7L74.9,233v0a8.63,8.63,0,0,0,.86-.28A11,11,0,0,0,77.69,213l3.22-8.3,1.39-3.57,1.44-3.74.52-1.33-1.86-.73-1.87-.72-.69,1.79-1.47,3.77-1.22,3.15L74,211.59a11,11,0,0,0-6.6,20.77,11.26,11.26,0,0,0,3.56.95l.67,7.34,18,5.84a5.75,5.75,0,0,1-2.4,3.49c-2.19,1.25-6,.56-11.23-2.1a5.57,5.57,0,0,0-5.85,1c-.82.74-2.56,2.87-1.2,6.72l3.77-1.33c-.28-.8-.49-1.87.11-2.42a1.74,1.74,0,0,1,1.42-.39c6.59,3.33,11.49,4,15,2a9.58,9.58,0,0,0,4.2-5.74l2.72.89.62-1.91.62-1.9-3.19-1c0-.26.07-.5.09-.76l1.45-3.87.56.22a4.4,4.4,0,0,0,6-4.61Zm-29.48-2.85Zm-7.39-6.83A7,7,0,1,1,69,228.72,7,7,0,0,1,65.38,224.81Z"/><path d="M59.26,36.37c-.18-1-.33-1.56-.33-1.56h0a53.22,53.22,0,0,1-1.41-10v-.12a16.85,16.85,0,0,1,5.65-14.41,19.56,19.56,0,0,1,12.71-5l1.43-3.92C71.78.78,65.19,3.07,60.5,7.28a21,21,0,0,0-7,17.66,56.58,56.58,0,0,0,1.53,10.89s.12.44.27,1.25,1.27,8.1-4.49,11.44l2,3.46C59,48.41,60.16,41.34,59.26,36.37Z"/><path d="M74,17a11,11,0,0,0-6.6,20.77,11.26,11.26,0,0,0,3.56,1L71.59,46l18,5.84a5.72,5.72,0,0,1-2.4,3.49c-2.19,1.26-6,.56-11.23-2.1a5.57,5.57,0,0,0-5.85,1c-.82.74-2.56,2.87-1.2,6.72l3.77-1.33c-.28-.8-.49-1.87.11-2.42a1.74,1.74,0,0,1,1.42-.39c6.59,3.33,11.49,4,15,2a9.55,9.55,0,0,0,4.2-5.74l2.72.89,1.24-3.81-3.19-1c0-.25.07-.49.09-.76l1.45-3.87.56.22a4.4,4.4,0,0,0,6-4.61l0-.25-3.69-9.58a2,2,0,0,1,.06-.49,4.72,4.72,0,0,1,.37-.41,4.52,4.52,0,0,0,1.54-3c.31-11.68-4.2-18.93-14.43-22.8L84.73,7.32c8.51,3.23,12,9,11.81,18.79-.1.14-.31.35-.45.51a9.67,9.67,0,0,0-.74.84,5.09,5.09,0,0,0-.65,3.9l3.59,9.36a.39.39,0,0,1-.54.27L93.4,39.27l-3.09,8.24,0,.3v0l-.46-.15L75.33,43l-.43-4.67v0a8.63,8.63,0,0,0,.86-.28,11,11,0,0,0,1.93-19.63l3.22-8.3L82.3,6.52l1.44-3.74.52-1.33L80.53,0l-.69,1.79L78.37,5.56,77.15,8.72Zm4.32,13.68h0a7,7,0,1,1,.19-5.34A7,7,0,0,1,78.28,30.63Z"/></g></g></svg>