<?xml version="1.0" encoding="UTF-8"?>
<svg version="1.1" viewBox="0 0 254.86 255.04" xmlns="http://www.w3.org/2000/svg">
  <polygon points="89.38 80.33 85.38 80.33 85.38 89.47 43.82 89.47 43.82 93.47 89.38 93.47"/>
  <polygon points="85.38 31.45 89.38 31.45 89.38 17.42 43.82 17.42 43.82 21.42 85.38 21.42"/>
  <path d="M160.28,80.26v94.59h94.58V80.26Zm90.58,90.59H164.28V84.26h86.58Z"/>
  <path d="M0,110.91H38.84V72.06H0ZM4,76.06H34.84v30.85H4Z"/>
  <path d="M0,38.84H38.84V0H0ZM4,4H34.84V34.84H4Z"/>
  <path d="M0,255H38.84V216.19H0Zm4-34.85H34.84V251H4Z"/>
  <path d="M0,183H38.84V144.13H0Zm4-34.84H34.84V179H4Z"/>
  <path d="M68,74.87H106.8V36H68ZM72,40H102.8V70.87H72Z"/>
  <polygon points="85.38 174.71 89.38 174.71 89.38 161.57 43.82 161.57 43.82 165.57 85.38 165.57"/>
  <polygon points="85.38 233.62 43.82 233.62 43.82 237.62 89.38 237.62 89.38 223.59 85.38 223.59"/>
  <path d="M68,219H106.8V180.17H68Zm4-34.84H102.8V215H72Z"/>
  <polygon points="142.85 118.89 149.58 125.63 130.46 125.63 130.46 53.66 111.88 53.66 111.88 57.66 126.45 57.66 126.45 197.59 111.88 197.59 111.88 201.59 130.46 201.59 130.46 129.63 149.58 129.63 142.85 136.36 145.68 139.19 157.24 127.63 145.68 116.06"/>
  <path d="m194.79 116.9v13.68a19 19 0 1 0 25.67 0v-13.68h-0.39l18-24.22h-20.49l-10 13.23-9.86-13.23h-20.49l18 24.22zm27.87 27.69a15 15 0 1 1-15-15 15 15 0 0 1 15 15zm-15-19a18.79 18.79 0 0 0-8.84 2.19v-6.88h17.67v6.85a18.78 18.78 0 0 0-8.86-2.19zm12-28.88h10.56l-14.7 19.74-5.33-7.17zm-34.38 0h10.55l15.07 20.22h-10.64z"/>
  <polygon points="210.22 137.02 203.35 138.57 204.23 142.47 206.22 142.03 206.22 147.98 202.99 147.98 202.99 151.98 213.45 151.98 213.45 147.98 210.22 147.98"/>
</svg>
