<svg xmlns="http://www.w3.org/2000/svg" viewBox="0 0 841.88 164.16"><defs><style>.cls-1{fill:#fff;}</style></defs><g id="Layer_2" data-name="Layer 2"><g id="Artwork"><path class="cls-1" d="M121.11,164.16a40.43,40.43,0,0,1-40.37-39.39h29.31a11.06,11.06,0,0,0,22.09-.67v-4.45l-1.25.31A40.43,40.43,0,0,1,81.72,90H79.78A40.47,40.47,0,1,1,49.09,41.26l1.21.26V0H80.85V67.42l2,.33a40.42,40.42,0,0,1,78.7,13v43A40.44,40.44,0,0,1,121.11,164.16Zm0-77.82a8.46,8.46,0,1,0,8.46,8.45A8.46,8.46,0,0,0,121.07,86.34ZM32.7,98.7A2.37,2.37,0,0,0,34.42,101a21.16,21.16,0,0,0,12,0,2.38,2.38,0,0,0,1.72-2.28V88.53H58.36a2.38,2.38,0,0,0,2.28-1.7,21.27,21.27,0,0,0,.89-6.09,20.91,20.91,0,0,0-.85-5.94,2.36,2.36,0,0,0-2.28-1.72H48.15V62.78a2.37,2.37,0,0,0-1.72-2.28,21.16,21.16,0,0,0-12,0,2.37,2.37,0,0,0-1.72,2.28v10.3H22.45a2.36,2.36,0,0,0-2.28,1.72,21,21,0,0,0-.85,5.94,21.27,21.27,0,0,0,.89,6.09,2.38,2.38,0,0,0,2.28,1.7H32.7ZM135.13,72.29a8.45,8.45,0,1,0,8.45,8.45A8.47,8.47,0,0,0,135.13,72.29Zm-28.11,0a8.45,8.45,0,1,0,8.45,8.45A8.46,8.46,0,0,0,107,72.29Zm14-14.06a8.46,8.46,0,1,0,8.46,8.45A8.46,8.46,0,0,0,121.07,58.23Z"/><path class="cls-1" d="M194.75,107.07V54.41h23.13c15.77,0,27.66,11.32,27.66,26.33s-11.89,26.33-27.66,26.33Zm13.31-10.65h7.79c9.69,0,16.46-6.4,16.46-15.56s-6.77-15.57-16.46-15.57h-7.79Z"/><path class="cls-1" d="M280.35,107.07l-8.44-18.19H264v18.19H250.18V54.41h28.75c12.82,0,20.78,6.59,20.78,17.19,0,7.57-4.3,13.37-11.81,15.92l-1.08.37,9.47,19.18ZM264,78.3h14.5c4.93,0,8-2.54,8-6.62s-3.06-6.39-8-6.39H264Z"/><path class="cls-1" d="M330.19,108.16c-15.8,0-27.27-11.53-27.27-27.42s11.47-27.43,27.27-27.43,27.27,11.54,27.27,27.43S346,108.16,330.19,108.16Zm0-43.1c-9.3,0-13.54,8.2-13.54,15.83s4.24,15.83,13.54,15.83,13.54-8.21,13.54-15.83S339.5,65.06,330.19,65.06Z"/><path class="cls-1" d="M362.38,107.07V54.41H389.8c12.63,0,20.79,6.81,20.79,17.35s-8.16,17.43-20.79,17.43H376.23v17.88ZM376.23,78.3H389c4.81,0,7.79-2.53,7.79-6.62s-3-6.39-7.79-6.39H376.23Z"/><rect class="cls-1" x="433.35" y="54.41" width="13.85" height="52.66"/><polygon class="cls-1" points="492.21 107.07 467.92 76.04 467.92 107.07 454.77 107.07 454.77 54.41 467.73 54.41 492.1 85.43 492.1 54.41 505.25 54.41 505.25 107.07 492.21 107.07"/><path class="cls-1" d="M558.12,108.16c-16.91,0-27.42-10.51-27.42-27.42,0-13.3,9.64-27.43,27.5-27.43,13.24,0,22.31,6.43,25.07,17.68h-14c-2-4.08-5.9-6.4-10.79-6.4-9.22,0-14,8.12-14,16.15,0,10.19,5.42,16.77,13.81,16.77,5.91,0,10-2.49,11.41-7l.42-1.3H557.72V78.3h26.34v5.41C584.06,98.56,573.88,108.16,558.12,108.16Z"/><path class="cls-1" d="M624,107.07l-2.89-9.22h-21l-2.89,9.22h-14.3l19.41-52.66h16.56l19.41,52.66ZM603.64,86.5h14l-7-22.21Z"/><polygon class="cls-1" points="690.59 107.07 690.59 77.3 688.65 76.95 677.42 107.07 667.56 107.07 656.32 76.95 654.39 77.3 654.39 107.07 641.32 107.07 641.32 54.41 659.32 54.41 672.49 86.75 685.65 54.41 703.66 54.41 703.66 107.07 690.59 107.07"/><rect class="cls-1" x="711.45" y="54.41" width="13.85" height="52.66"/><polygon class="cls-1" points="770.32 107.07 746.03 76.04 746.03 107.07 732.88 107.07 732.88 54.41 745.84 54.41 770.21 85.43 770.21 54.41 783.36 54.41 783.36 107.07 770.32 107.07"/><path class="cls-1" d="M815.94,108.16c-16.91,0-27.42-10.51-27.42-27.42,0-13.3,9.64-27.43,27.5-27.43,13.24,0,22.31,6.43,25.07,17.68h-14c-2-4.08-5.9-6.4-10.79-6.4-9.22,0-14,8.12-14,16.15,0,10.19,5.42,16.77,13.81,16.77,5.91,0,10-2.49,11.41-7l.42-1.3H815.54V78.3h26.34v5.41C841.88,98.56,831.7,108.16,815.94,108.16Z"/><rect class="cls-1" x="415.27" y="78.3" width="10.88" height="10.88" transform="translate(504.46 -336.97) rotate(90)"/></g></g></svg>